<?xml version="1.0" encoding="UTF-8"?><svg id="a" xmlns="http://www.w3.org/2000/svg" viewBox="0 0 500 130"><defs><style>.b{fill:#fff;}.c{fill:#fbbb00;}</style></defs><ellipse cx="65.18" cy="65" rx="65.18" ry="65"/><path class="c" d="M103.77,18.71H26.61c-2.53,2.1-4.88,4.39-7.02,6.85H61.33V125.15c1.27,.08,2.56,.12,3.85,.12,1.01,0,2.01-.03,3.02-.08V25.57h42.59c-2.15-2.47-4.49-4.76-7.02-6.85Z"/><polygon class="b" points="84 55.29 84 95.61 77.13 95.61 77.13 41.21 84 55.29"/><polygon class="b" points="113.23 34.47 113.23 95.61 106.36 95.61 77.13 35.72 77.13 34.47 84 34.47 106.36 80.28 106.36 34.47 113.23 34.47"/><g><path class="b" d="M52.41,52.49h0c0-9.95-8.08-18-18.04-18-4.98,0-9.5,2.01-12.77,5.27-3.26,3.26-5.28,7.76-5.28,12.73v43.08h6.87v-25.09h29.22v-17.99Zm-29.22,0c0-1.79,.42-3.47,1.17-4.97,1.84-3.66,5.63-6.18,10.01-6.18,6.16,0,11.17,5,11.17,11.14h0v11.15H23.18v-11.14Z"/><rect class="b" x="45.54" y="72.88" width="6.87" height="22.69"/></g><g><path d="M166.49,38.49c-.27-.78-.54-1.55-.83-2.31-.29-.76-.56-1.54-.83-2.34h-8.38c-.27,.8-.54,1.58-.82,2.35-.28,.77-.55,1.54-.82,2.3h-3.75c.74-2.11,1.45-4.06,2.12-5.85s1.32-3.48,1.96-5.08c.64-1.6,1.27-3.12,1.9-4.57,.63-1.45,1.28-2.87,1.94-4.28h3.44c.67,1.41,1.32,2.83,1.95,4.28,.63,1.45,1.26,2.97,1.9,4.57s1.3,3.29,1.98,5.08c.68,1.79,1.39,3.74,2.13,5.85h-3.89Zm-5.85-15.95c-.44,1.01-.94,2.24-1.5,3.68-.56,1.45-1.15,3.02-1.76,4.71h6.52c-.61-1.69-1.2-3.27-1.77-4.74-.57-1.46-1.07-2.68-1.49-3.65Z"/><path d="M176.16,29.38c.44-.46,.91-.95,1.4-1.47,.5-.52,.98-1.05,1.46-1.57,.48-.52,.93-1.03,1.36-1.51,.43-.48,.8-.91,1.1-1.27h4.09c-.95,1.07-1.96,2.17-3.01,3.31-1.06,1.14-2.12,2.25-3.18,3.34,.57,.48,1.17,1.05,1.8,1.73,.63,.68,1.24,1.39,1.83,2.15,.59,.76,1.14,1.52,1.66,2.28,.51,.76,.94,1.47,1.28,2.11h-4.01c-.34-.59-.74-1.21-1.19-1.85-.45-.65-.93-1.27-1.44-1.88-.52-.61-1.04-1.18-1.57-1.73-.53-.54-1.06-1-1.57-1.38v6.85h-3.46V16.92l3.46-.57v13.04Z"/><path d="M193.44,23.19c1.14,0,2.11,.14,2.89,.43,.78,.29,1.41,.68,1.87,1.2,.47,.51,.8,1.14,1,1.87,.2,.73,.3,1.54,.3,2.41v9.04c-.53,.11-1.34,.25-2.42,.41-1.08,.16-2.29,.24-3.65,.24-.9,0-1.72-.09-2.46-.26-.74-.17-1.38-.45-1.9-.83-.52-.38-.93-.87-1.23-1.48-.3-.61-.44-1.36-.44-2.25s.17-1.58,.5-2.17c.33-.59,.79-1.07,1.36-1.44,.57-.37,1.23-.64,1.99-.8,.75-.16,1.54-.24,2.36-.24,.38,0,.78,.02,1.2,.07,.42,.05,.87,.13,1.34,.24v-.57c0-.4-.05-.78-.14-1.14-.1-.36-.26-.68-.5-.96-.24-.28-.55-.49-.94-.64s-.88-.23-1.47-.23c-.8,0-1.54,.06-2.2,.17s-1.21,.25-1.63,.4l-.43-2.8c.44-.15,1.08-.3,1.92-.46,.84-.15,1.74-.23,2.69-.23Zm.29,12.87c1.07,0,1.88-.06,2.43-.17v-3.82c-.19-.06-.47-.11-.83-.17-.36-.06-.76-.09-1.2-.09-.38,0-.77,.03-1.16,.09s-.74,.16-1.06,.31c-.31,.15-.57,.37-.76,.64-.19,.28-.29,.62-.29,1.04,0,.82,.26,1.38,.77,1.7,.52,.31,1.21,.47,2.09,.47Z"/><path d="M216.39,38.03c-.69,.21-1.55,.4-2.59,.57-1.04,.17-2.13,.26-3.28,.26s-2.24-.18-3.18-.54c-.94-.36-1.73-.88-2.39-1.55-.66-.67-1.16-1.49-1.52-2.45-.35-.96-.53-2.04-.53-3.24s.15-2.25,.44-3.21c.3-.96,.73-1.78,1.3-2.47,.57-.69,1.27-1.21,2.09-1.58,.82-.37,1.76-.56,2.83-.56,.72,0,1.36,.09,1.92,.26s1.03,.36,1.43,.57v-7.16l3.46-.57v21.69Zm-9.93-7.05c0,1.52,.36,2.72,1.09,3.58,.72,.87,1.73,1.3,3,1.3,.55,0,1.03-.02,1.42-.07,.39-.05,.71-.1,.96-.16v-8.56c-.31-.21-.71-.4-1.22-.59-.51-.18-1.04-.27-1.62-.27-1.26,0-2.18,.43-2.76,1.28-.58,.86-.87,2.02-.87,3.48Z"/><path d="M219.96,31.1c0-1.31,.2-2.46,.59-3.45,.39-.99,.91-1.81,1.56-2.47,.65-.66,1.39-1.15,2.23-1.48,.84-.33,1.7-.5,2.57-.5,2.06,0,3.67,.64,4.82,1.91,1.15,1.27,1.73,3.18,1.73,5.71,0,.19,0,.4-.01,.64-.01,.24-.02,.45-.04,.64h-9.87c.1,1.2,.52,2.13,1.27,2.78,.75,.66,1.84,.98,3.28,.98,.84,0,1.61-.08,2.3-.23,.7-.15,1.25-.31,1.65-.48l.46,2.82c-.19,.1-.45,.2-.79,.3-.33,.11-.72,.2-1.14,.29-.43,.09-.89,.16-1.39,.21s-1,.09-1.52,.09c-1.32,0-2.46-.2-3.43-.59-.97-.39-1.77-.93-2.4-1.63-.63-.69-1.1-1.51-1.4-2.45-.31-.94-.46-1.97-.46-3.1Zm10.04-1.54c0-.48-.07-.93-.2-1.36-.13-.43-.33-.8-.59-1.11-.26-.31-.57-.56-.94-.74-.37-.18-.82-.27-1.33-.27s-1,.1-1.4,.3c-.4,.2-.74,.46-1.02,.78-.28,.32-.49,.69-.64,1.11-.15,.42-.26,.85-.31,1.28h6.44Z"/><path d="M245.66,30.64c0-1.56-.2-2.69-.59-3.38-.39-.69-1.12-1.04-2.19-1.04-.38,0-.8,.03-1.26,.09-.46,.06-.8,.1-1.03,.14v12.04h-3.46v-14.44c.67-.19,1.54-.37,2.62-.54s2.22-.26,3.42-.26c1.03,0,1.87,.13,2.53,.4s1.21,.62,1.65,1.06c.21-.15,.48-.31,.8-.48,.32-.17,.69-.33,1.09-.47,.4-.14,.82-.26,1.27-.36,.45-.1,.9-.14,1.36-.14,1.16,0,2.12,.17,2.88,.5,.75,.33,1.34,.8,1.77,1.4s.72,1.32,.89,2.17,.24,1.77,.24,2.78v8.39h-3.46v-7.85c0-1.56-.19-2.69-.57-3.38-.38-.69-1.12-1.04-2.2-1.04-.55,0-1.08,.09-1.57,.27-.5,.18-.87,.36-1.12,.53,.15,.48,.26,.98,.31,1.51,.06,.53,.09,1.1,.09,1.71v8.25h-3.46v-7.85Z"/><path d="M265.74,19.2c0,.65-.21,1.16-.63,1.54-.42,.38-.92,.57-1.49,.57s-1.1-.19-1.52-.57c-.42-.38-.63-.89-.63-1.54s.21-1.19,.63-1.57c.42-.38,.92-.57,1.52-.57s1.07,.19,1.49,.57c.42,.38,.63,.9,.63,1.57Zm-.37,19.29h-3.46v-14.92h3.46v14.92Z"/><path d="M268.95,31.1c0-1.31,.2-2.46,.59-3.45,.39-.99,.91-1.81,1.56-2.47,.65-.66,1.39-1.15,2.23-1.48,.84-.33,1.7-.5,2.57-.5,2.06,0,3.67,.64,4.82,1.91,1.15,1.27,1.73,3.18,1.73,5.71,0,.19,0,.4-.01,.64-.01,.24-.02,.45-.04,.64h-9.87c.1,1.2,.52,2.13,1.27,2.78,.75,.66,1.84,.98,3.28,.98,.84,0,1.61-.08,2.3-.23,.7-.15,1.25-.31,1.65-.48l.46,2.82c-.19,.1-.45,.2-.79,.3-.33,.11-.72,.2-1.14,.29-.43,.09-.89,.16-1.39,.21s-1,.09-1.52,.09c-1.32,0-2.46-.2-3.43-.59-.97-.39-1.77-.93-2.4-1.63-.63-.69-1.1-1.51-1.4-2.45-.31-.94-.46-1.97-.46-3.1Zm10.04-1.54c0-.48-.07-.93-.2-1.36-.13-.43-.33-.8-.59-1.11-.26-.31-.57-.56-.94-.74-.37-.18-.82-.27-1.33-.27s-1,.1-1.4,.3c-.4,.2-.74,.46-1.02,.78-.28,.32-.49,.69-.64,1.11-.15,.42-.26,.85-.31,1.28h6.44Z"/><path d="M298.88,16.35c.8,0,1.51,.07,2.12,.21,.61,.14,1.07,.27,1.37,.39l-.66,2.85c-.32-.15-.7-.28-1.13-.37-.43-.09-.89-.14-1.39-.14-.55,0-1.02,.08-1.4,.24-.38,.16-.69,.39-.92,.67-.23,.29-.39,.63-.49,1.04-.1,.41-.14,.85-.14,1.33v1h5.44v2.88h-5.44v12.04h-3.46v-15.98c0-1.92,.51-3.43,1.52-4.52,1.01-1.09,2.54-1.64,4.58-1.64Z"/><path d="M316.5,38.03c-.67,.17-1.54,.35-2.6,.53-1.07,.18-2.24,.27-3.52,.27-1.2,0-2.21-.17-3.02-.51-.81-.34-1.46-.82-1.95-1.43-.49-.61-.83-1.34-1.04-2.18-.21-.85-.31-1.77-.31-2.78v-8.36h3.46v7.82c0,1.6,.23,2.74,.7,3.42,.47,.68,1.28,1.03,2.45,1.03,.42,0,.86-.02,1.33-.06,.47-.04,.82-.09,1.04-.14v-12.07h3.46v14.47Zm-9.18-16.92c-.52,0-.96-.17-1.34-.51-.38-.34-.57-.81-.57-1.4s.19-1.06,.57-1.41c.38-.35,.83-.53,1.34-.53s.97,.18,1.36,.53c.39,.35,.59,.82,.59,1.41s-.2,1.06-.59,1.4-.84,.51-1.36,.51Zm5.92,0c-.52,0-.97-.17-1.36-.51s-.59-.81-.59-1.4,.19-1.06,.59-1.41c.39-.35,.84-.53,1.36-.53s.96,.18,1.34,.53c.38,.35,.57,.82,.57,1.41s-.19,1.06-.57,1.4-.83,.51-1.34,.51Z"/><path d="M329.44,26.67c-.29-.09-.68-.19-1.19-.3-.51-.1-1.09-.16-1.76-.16-.38,0-.79,.04-1.22,.11-.43,.08-.73,.14-.9,.2v11.96h-3.46v-14.21c.67-.25,1.5-.48,2.5-.7,1-.22,2.11-.33,3.33-.33,.23,0,.5,.01,.8,.04,.3,.03,.61,.07,.92,.11,.3,.05,.6,.1,.89,.17,.29,.07,.52,.13,.69,.19l-.6,2.91Z"/><path d="M344.09,23.19c1.14,0,2.11,.14,2.89,.43,.78,.29,1.41,.68,1.87,1.2,.47,.51,.8,1.14,1,1.87,.2,.73,.3,1.54,.3,2.41v9.04c-.53,.11-1.34,.25-2.42,.41-1.08,.16-2.29,.24-3.65,.24-.9,0-1.72-.09-2.46-.26-.74-.17-1.38-.45-1.9-.83-.52-.38-.93-.87-1.23-1.48-.3-.61-.44-1.36-.44-2.25s.17-1.58,.5-2.17c.33-.59,.79-1.07,1.36-1.44,.57-.37,1.23-.64,1.99-.8,.75-.16,1.54-.24,2.36-.24,.38,0,.78,.02,1.2,.07,.42,.05,.87,.13,1.34,.24v-.57c0-.4-.05-.78-.14-1.14-.1-.36-.26-.68-.5-.96-.24-.28-.55-.49-.94-.64s-.88-.23-1.47-.23c-.8,0-1.54,.06-2.2,.17s-1.21,.25-1.63,.4l-.43-2.8c.44-.15,1.08-.3,1.92-.46,.84-.15,1.74-.23,2.69-.23Zm.29,12.87c1.07,0,1.88-.06,2.43-.17v-3.82c-.19-.06-.47-.11-.83-.17-.36-.06-.76-.09-1.2-.09-.38,0-.77,.03-1.16,.09s-.74,.16-1.06,.31c-.31,.15-.57,.37-.76,.64-.19,.28-.29,.62-.29,1.04,0,.82,.26,1.38,.77,1.7,.52,.31,1.21,.47,2.09,.47Z"/><path d="M354.39,24.05c.67-.19,1.53-.37,2.6-.54,1.07-.17,2.25-.26,3.55-.26,1.22,0,2.24,.17,3.06,.5,.82,.33,1.47,.8,1.96,1.4,.49,.6,.83,1.32,1.03,2.17s.3,1.77,.3,2.78v8.39h-3.46v-7.85c0-.8-.05-1.48-.16-2.04-.1-.56-.28-1.02-.52-1.37s-.56-.61-.97-.77c-.41-.16-.91-.24-1.5-.24-.44,0-.9,.03-1.37,.09s-.83,.1-1.06,.14v12.04h-3.46v-14.44Z"/><path d="M383.49,36.97c0,2.38-.61,4.12-1.82,5.22-1.21,1.1-3.07,1.65-5.57,1.65-.92,0-1.81-.08-2.68-.23-.87-.15-1.65-.35-2.36-.6l.63-2.94c.59,.25,1.26,.45,2.02,.6,.75,.15,1.57,.23,2.45,.23,1.39,0,2.38-.29,2.98-.86,.59-.57,.89-1.42,.89-2.54v-.57c-.34,.17-.8,.34-1.36,.51-.56,.17-1.21,.26-1.93,.26-.95,0-1.83-.15-2.62-.46-.79-.3-1.47-.75-2.03-1.34-.56-.59-1-1.33-1.32-2.21s-.47-1.91-.47-3.07c0-1.08,.17-2.08,.5-3,.33-.91,.82-1.69,1.46-2.34s1.42-1.15,2.33-1.51c.92-.36,1.96-.54,3.12-.54s2.19,.09,3.2,.26,1.87,.35,2.58,.54v12.93Zm-9.64-6.33c0,1.46,.32,2.53,.96,3.21,.64,.68,1.46,1.01,2.47,1.01,.55,0,1.07-.08,1.56-.23,.49-.15,.88-.33,1.19-.54v-7.73c-.25-.06-.55-.11-.92-.16-.36-.05-.82-.07-1.37-.07-1.26,0-2.22,.41-2.89,1.24-.67,.83-1,1.92-1,3.27Z"/><path d="M387.06,31.1c0-1.31,.2-2.46,.59-3.45,.39-.99,.91-1.81,1.56-2.47,.65-.66,1.39-1.15,2.23-1.48,.84-.33,1.7-.5,2.57-.5,2.06,0,3.67,.64,4.82,1.91,1.15,1.27,1.73,3.18,1.73,5.71,0,.19,0,.4-.01,.64-.01,.24-.02,.45-.04,.64h-9.87c.1,1.2,.52,2.13,1.27,2.78,.75,.66,1.84,.98,3.28,.98,.84,0,1.61-.08,2.3-.23,.7-.15,1.25-.31,1.65-.48l.46,2.82c-.19,.1-.45,.2-.79,.3-.33,.11-.72,.2-1.14,.29-.43,.09-.89,.16-1.39,.21s-1,.09-1.52,.09c-1.32,0-2.46-.2-3.43-.59-.97-.39-1.77-.93-2.4-1.63-.63-.69-1.1-1.51-1.4-2.45-.31-.94-.46-1.97-.46-3.1Zm10.04-1.54c0-.48-.07-.93-.2-1.36-.13-.43-.33-.8-.59-1.11-.26-.31-.57-.56-.94-.74-.37-.18-.82-.27-1.33-.27s-1,.1-1.4,.3c-.4,.2-.74,.46-1.02,.78-.28,.32-.49,.69-.64,1.11-.15,.42-.26,.85-.31,1.28h6.44Z"/><path d="M413.17,29.1c-.44,1.67-.91,3.31-1.42,4.89-.51,1.59-1.01,3.09-1.5,4.49h-2.84c-.38-.87-.78-1.87-1.2-3-.42-1.12-.84-2.32-1.26-3.6-.42-1.27-.84-2.62-1.26-4.02-.42-1.41-.83-2.84-1.23-4.31h3.66c.17,.8,.37,1.66,.6,2.58,.23,.92,.47,1.86,.72,2.82,.25,.96,.51,1.9,.78,2.81,.27,.91,.54,1.75,.8,2.51,.29-.87,.57-1.78,.85-2.71,.28-.93,.54-1.86,.79-2.8,.25-.93,.48-1.84,.7-2.72,.22-.88,.42-1.72,.59-2.5h2.66c.17,.78,.36,1.61,.57,2.5s.43,1.79,.67,2.72c.24,.93,.49,1.86,.77,2.8,.28,.93,.56,1.84,.84,2.71,.25-.76,.51-1.6,.78-2.51,.27-.91,.53-1.85,.79-2.81,.26-.96,.5-1.9,.73-2.82,.23-.92,.43-1.78,.6-2.58h3.58c-.4,1.46-.81,2.9-1.23,4.31-.42,1.41-.84,2.75-1.26,4.02-.42,1.27-.84,2.47-1.26,3.6-.42,1.12-.83,2.12-1.23,3h-2.81c-.5-1.41-1-2.91-1.53-4.49-.52-1.59-1-3.22-1.44-4.89Z"/><path d="M431.53,23.19c1.14,0,2.11,.14,2.89,.43,.78,.29,1.41,.68,1.87,1.2,.47,.51,.8,1.14,1,1.87,.2,.73,.3,1.54,.3,2.41v9.04c-.53,.11-1.34,.25-2.42,.41-1.08,.16-2.29,.24-3.65,.24-.9,0-1.72-.09-2.46-.26-.74-.17-1.38-.45-1.9-.83-.52-.38-.93-.87-1.23-1.48-.3-.61-.44-1.36-.44-2.25s.17-1.58,.5-2.17c.33-.59,.79-1.07,1.36-1.44,.57-.37,1.23-.64,1.99-.8,.75-.16,1.54-.24,2.36-.24,.38,0,.78,.02,1.2,.07,.42,.05,.87,.13,1.34,.24v-.57c0-.4-.05-.78-.14-1.14-.1-.36-.26-.68-.5-.96-.24-.28-.55-.49-.94-.64s-.88-.23-1.47-.23c-.8,0-1.54,.06-2.2,.17s-1.21,.25-1.63,.4l-.43-2.8c.44-.15,1.08-.3,1.92-.46,.84-.15,1.74-.23,2.69-.23Zm.29,12.87c1.07,0,1.88-.06,2.43-.17v-3.82c-.19-.06-.47-.11-.83-.17-.36-.06-.76-.09-1.2-.09-.38,0-.77,.03-1.16,.09s-.74,.16-1.06,.31c-.31,.15-.57,.37-.76,.64-.19,.28-.29,.62-.29,1.04,0,.82,.26,1.38,.77,1.7,.52,.31,1.21,.47,2.09,.47Z"/><path d="M441.83,24.05c.67-.19,1.53-.37,2.6-.54,1.07-.17,2.25-.26,3.55-.26,1.22,0,2.24,.17,3.06,.5,.82,.33,1.47,.8,1.96,1.4,.49,.6,.83,1.32,1.03,2.17s.3,1.77,.3,2.78v8.39h-3.46v-7.85c0-.8-.05-1.48-.16-2.04-.1-.56-.28-1.02-.52-1.37s-.56-.61-.97-.77c-.41-.16-.91-.24-1.5-.24-.44,0-.9,.03-1.37,.09s-.83,.1-1.06,.14v12.04h-3.46v-14.44Z"/><path d="M471.21,38.03c-.69,.21-1.55,.4-2.59,.57-1.04,.17-2.13,.26-3.28,.26s-2.24-.18-3.18-.54c-.94-.36-1.73-.88-2.39-1.55-.66-.67-1.16-1.49-1.52-2.45-.35-.96-.53-2.04-.53-3.24s.15-2.25,.44-3.21c.3-.96,.73-1.78,1.3-2.47,.57-.69,1.27-1.21,2.09-1.58,.82-.37,1.76-.56,2.83-.56,.72,0,1.36,.09,1.92,.26s1.03,.36,1.43,.57v-7.16l3.46-.57v21.69Zm-9.93-7.05c0,1.52,.36,2.72,1.09,3.58,.72,.87,1.73,1.3,3,1.3,.55,0,1.03-.02,1.42-.07,.39-.05,.71-.1,.96-.16v-8.56c-.31-.21-.71-.4-1.22-.59-.51-.18-1.04-.27-1.62-.27-1.26,0-2.18,.43-2.76,1.28-.58,.86-.87,2.02-.87,3.48Z"/><path d="M475.45,19.63l3.46-.57v4.51h5.32v2.88h-5.32v6.08c0,1.2,.19,2.05,.57,2.57,.38,.51,1.03,.77,1.95,.77,.63,0,1.19-.07,1.67-.2,.49-.13,.87-.26,1.16-.37l.57,2.74c-.4,.17-.93,.35-1.57,.53-.65,.18-1.41,.27-2.29,.27-1.07,0-1.96-.14-2.68-.43-.71-.29-1.28-.7-1.7-1.24-.42-.54-.71-1.2-.89-1.97s-.26-1.65-.26-2.64v-12.93Z"/><path d="M486.49,31.1c0-1.31,.2-2.46,.59-3.45,.39-.99,.91-1.81,1.56-2.47,.65-.66,1.39-1.15,2.23-1.48,.84-.33,1.7-.5,2.57-.5,2.06,0,3.67,.64,4.82,1.91,1.15,1.27,1.73,3.18,1.73,5.71,0,.19,0,.4-.01,.64-.01,.24-.02,.45-.04,.64h-9.87c.1,1.2,.52,2.13,1.27,2.78,.75,.66,1.84,.98,3.28,.98,.84,0,1.61-.08,2.3-.23,.7-.15,1.25-.31,1.65-.48l.46,2.82c-.19,.1-.45,.2-.79,.3-.33,.11-.72,.2-1.14,.29-.43,.09-.89,.16-1.39,.21s-1,.09-1.52,.09c-1.32,0-2.46-.2-3.43-.59-.97-.39-1.77-.93-2.4-1.63-.63-.69-1.1-1.51-1.4-2.45-.31-.94-.46-1.97-.46-3.1Zm10.04-1.54c0-.48-.07-.93-.2-1.36-.13-.43-.33-.8-.59-1.11-.26-.31-.57-.56-.94-.74-.37-.18-.82-.27-1.33-.27s-1,.1-1.4,.3c-.4,.2-.74,.46-1.02,.78-.28,.32-.49,.69-.64,1.11-.15,.42-.26,.85-.31,1.28h6.44Z"/><path d="M167.12,47.25v3.11h-6.09v16.66h-3.63v-16.66h-6.09v-3.11h15.82Z"/><path d="M173.55,47.73c0,.65-.21,1.16-.63,1.54-.42,.38-.92,.57-1.49,.57s-1.1-.19-1.52-.57c-.42-.38-.63-.89-.63-1.54s.21-1.19,.63-1.57c.42-.38,.92-.57,1.52-.57s1.07,.19,1.49,.57c.42,.38,.63,.9,.63,1.57Zm-.37,19.29h-3.46v-14.92h3.46v14.92Z"/><path d="M176.76,59.63c0-1.31,.2-2.46,.59-3.45,.39-.99,.91-1.81,1.56-2.47,.65-.66,1.39-1.15,2.23-1.48,.84-.33,1.7-.5,2.57-.5,2.06,0,3.67,.64,4.82,1.91,1.15,1.27,1.73,3.18,1.73,5.71,0,.19,0,.4-.01,.64-.01,.24-.02,.45-.04,.64h-9.87c.1,1.2,.52,2.13,1.27,2.78,.75,.66,1.84,.98,3.28,.98,.84,0,1.61-.08,2.3-.23,.7-.15,1.25-.31,1.65-.48l.46,2.82c-.19,.1-.45,.2-.79,.3-.33,.11-.72,.2-1.14,.29-.43,.09-.89,.16-1.39,.21s-1,.09-1.52,.09c-1.32,0-2.46-.2-3.43-.59-.97-.39-1.77-.93-2.4-1.63-.63-.69-1.1-1.51-1.4-2.45-.31-.94-.46-1.97-.46-3.1Zm10.04-1.54c0-.48-.07-.93-.2-1.36-.13-.43-.33-.8-.59-1.11-.26-.31-.57-.56-.94-.74-.37-.18-.82-.27-1.33-.27s-1,.1-1.4,.3c-.4,.2-.74,.46-1.02,.78-.28,.32-.49,.69-.64,1.11-.15,.42-.26,.85-.31,1.28h6.44Z"/><path d="M202.45,55.21c-.29-.09-.68-.19-1.19-.3-.51-.1-1.09-.16-1.76-.16-.38,0-.79,.04-1.22,.11-.43,.08-.73,.14-.9,.2v11.96h-3.46v-14.21c.67-.25,1.5-.48,2.5-.7,1-.22,2.11-.33,3.33-.33,.23,0,.5,.01,.8,.04,.3,.03,.61,.07,.92,.11,.3,.05,.6,.1,.89,.17,.29,.07,.52,.13,.69,.19l-.6,2.91Z"/><path d="M218.93,59.57c0,1.14-.15,2.19-.44,3.14-.3,.95-.72,1.77-1.27,2.45s-1.24,1.22-2.07,1.6c-.83,.38-1.77,.57-2.82,.57-.71,0-1.35-.09-1.95-.26-.59-.17-1.08-.36-1.46-.57v5.79h-3.46v-19.72c.71-.19,1.57-.37,2.6-.54,1.03-.17,2.12-.26,3.26-.26s2.24,.18,3.18,.54c.93,.36,1.73,.88,2.39,1.56,.66,.68,1.16,1.49,1.52,2.45,.35,.96,.53,2.04,.53,3.24Zm-3.55,.06c0-1.54-.35-2.74-1.04-3.6-.7-.86-1.82-1.28-3.36-1.28-.33,0-.66,.01-1.02,.04s-.7,.09-1.04,.19v8.53c.3,.21,.71,.4,1.22,.58,.51,.18,1.04,.27,1.62,.27,1.26,0,2.18-.43,2.76-1.28,.58-.86,.87-2.01,.87-3.45Z"/><path d="M226.26,64.54c.92,0,1.58-.11,2-.33,.42-.22,.63-.59,.63-1.13,0-.49-.22-.9-.67-1.23-.45-.32-1.19-.68-2.22-1.06-.63-.23-1.21-.47-1.73-.73-.52-.26-.98-.56-1.36-.9-.38-.34-.68-.76-.9-1.24-.22-.48-.33-1.08-.33-1.78,0-1.37,.51-2.45,1.52-3.24,1.01-.79,2.38-1.18,4.12-1.18,.88,0,1.72,.08,2.52,.24,.8,.16,1.4,.32,1.8,.47l-.63,2.8c-.38-.17-.87-.33-1.46-.47-.59-.14-1.28-.21-2.06-.21-.71,0-1.28,.12-1.72,.36-.44,.24-.66,.6-.66,1.1,0,.25,.04,.47,.13,.66,.09,.19,.23,.37,.44,.53,.21,.16,.49,.32,.83,.48,.34,.16,.76,.33,1.26,.5,.82,.3,1.52,.6,2.09,.9,.57,.29,1.04,.63,1.42,1,.37,.37,.64,.79,.82,1.27,.17,.48,.26,1.05,.26,1.71,0,1.43-.53,2.51-1.59,3.24-1.06,.73-2.57,1.1-4.53,1.1-1.32,0-2.38-.11-3.18-.33-.8-.22-1.36-.39-1.69-.53l.6-2.88c.52,.21,1.13,.41,1.85,.6,.72,.19,1.53,.29,2.45,.29Z"/><path d="M247.8,52.1c-1.54,5.67-3.33,10.8-5.37,15.41-.38,.86-.77,1.59-1.17,2.2-.4,.61-.85,1.11-1.35,1.51-.5,.4-1.05,.69-1.66,.87-.61,.18-1.32,.27-2.12,.27-.54,0-1.07-.06-1.59-.17s-.92-.24-1.19-.37l.63-2.77c.69,.27,1.37,.4,2.04,.4,.9,0,1.61-.21,2.11-.64s.95-1.09,1.34-1.98c-1.09-2.09-2.14-4.37-3.15-6.85-1.01-2.47-1.9-5.1-2.69-7.88h3.69c.19,.8,.43,1.66,.7,2.6,.28,.93,.58,1.88,.91,2.84,.33,.96,.67,1.92,1.03,2.87,.36,.95,.73,1.84,1.09,2.65,.61-1.69,1.18-3.5,1.71-5.41,.53-1.91,1.02-3.76,1.45-5.55h3.58Z"/><path d="M249.61,59.57c0-1.1,.17-2.14,.52-3.1,.34-.96,.83-1.79,1.47-2.5s1.42-1.26,2.33-1.66c.92-.4,1.95-.6,3.09-.6,1.41,0,2.75,.26,4.01,.77l-.74,2.82c-.4-.17-.85-.31-1.36-.43-.51-.11-1.04-.17-1.62-.17-1.35,0-2.38,.42-3.09,1.27-.71,.85-1.06,2.04-1.06,3.58s.33,2.66,1,3.52c.67,.87,1.79,1.3,3.38,1.3,.59,0,1.17-.06,1.75-.17s1.07-.26,1.49-.43l.49,2.85c-.38,.19-.96,.36-1.73,.51-.77,.15-1.57,.23-2.39,.23-1.28,0-2.39-.2-3.33-.59-.94-.39-1.73-.93-2.35-1.63-.62-.69-1.08-1.52-1.39-2.48-.31-.96-.46-2-.46-3.12Z"/><path d="M263.94,67.02v-21.57l3.46-.57v7.39c.38-.13,.82-.25,1.33-.34,.51-.1,1.01-.14,1.5-.14,1.2,0,2.2,.17,2.99,.5,.79,.33,1.43,.8,1.9,1.4,.48,.6,.82,1.32,1.02,2.15s.3,1.77,.3,2.8v8.39h-3.46v-7.85c0-.8-.05-1.48-.16-2.04-.1-.56-.28-1.02-.52-1.37s-.56-.61-.96-.77c-.4-.16-.9-.24-1.49-.24-.46,0-.92,.05-1.4,.14s-.83,.18-1.06,.26v11.87h-3.46Z"/><path d="M294.13,59.54c0,1.18-.17,2.25-.52,3.22-.34,.97-.83,1.8-1.46,2.48-.63,.68-1.39,1.22-2.27,1.6-.89,.38-1.87,.57-2.93,.57s-2.04-.19-2.92-.57c-.88-.38-1.63-.91-2.26-1.6s-1.12-1.51-1.47-2.48-.53-2.04-.53-3.22,.18-2.25,.53-3.21c.35-.96,.85-1.78,1.49-2.47s1.4-1.21,2.27-1.58c.88-.37,1.84-.56,2.89-.56s2.02,.19,2.9,.56c.89,.37,1.65,.9,2.27,1.58,.63,.68,1.12,1.51,1.47,2.47,.35,.96,.53,2.03,.53,3.21Zm-3.55,0c0-1.48-.32-2.66-.96-3.52-.64-.87-1.53-1.3-2.68-1.3s-2.04,.43-2.68,1.3c-.64,.87-.96,2.04-.96,3.52s.32,2.69,.96,3.57c.64,.88,1.53,1.31,2.68,1.31s2.04-.44,2.68-1.31c.64-.87,.96-2.06,.96-3.57Z"/><path d="M302.91,67.31c-1.03-.02-1.88-.13-2.56-.34-.68-.21-1.22-.51-1.62-.9-.4-.39-.68-.87-.84-1.46-.16-.58-.24-1.24-.24-1.98v-17.18l3.46-.57v17.09c0,.42,.03,.77,.1,1.06,.07,.29,.19,.53,.36,.73,.17,.2,.4,.35,.7,.46,.3,.1,.67,.19,1.13,.24l-.49,2.85Z"/><path d="M319.74,59.54c0,1.18-.17,2.25-.52,3.22-.34,.97-.83,1.8-1.46,2.48-.63,.68-1.39,1.22-2.27,1.6-.89,.38-1.87,.57-2.93,.57s-2.04-.19-2.92-.57c-.88-.38-1.63-.91-2.26-1.6s-1.12-1.51-1.47-2.48-.53-2.04-.53-3.22,.18-2.25,.53-3.21c.35-.96,.85-1.78,1.49-2.47s1.4-1.21,2.27-1.58c.88-.37,1.84-.56,2.89-.56s2.02,.19,2.9,.56c.89,.37,1.65,.9,2.27,1.58,.63,.68,1.12,1.51,1.47,2.47,.35,.96,.53,2.03,.53,3.21Zm-3.55,0c0-1.48-.32-2.66-.96-3.52-.64-.87-1.53-1.3-2.68-1.3s-2.04,.43-2.68,1.3c-.64,.87-.96,2.04-.96,3.52s.32,2.69,.96,3.57c.64,.88,1.53,1.31,2.68,1.31s2.04-.44,2.68-1.31c.64-.87,.96-2.06,.96-3.57Z"/><path d="M335.67,65.51c0,2.38-.61,4.12-1.82,5.22-1.21,1.1-3.07,1.65-5.57,1.65-.92,0-1.81-.08-2.68-.23-.87-.15-1.65-.35-2.36-.6l.63-2.94c.59,.25,1.26,.45,2.02,.6,.75,.15,1.57,.23,2.45,.23,1.39,0,2.38-.29,2.98-.86,.59-.57,.89-1.42,.89-2.54v-.57c-.34,.17-.8,.34-1.36,.51-.56,.17-1.21,.26-1.93,.26-.95,0-1.83-.15-2.62-.46-.79-.3-1.47-.75-2.03-1.34-.56-.59-1-1.33-1.32-2.21s-.47-1.91-.47-3.07c0-1.08,.17-2.08,.5-3,.33-.91,.82-1.69,1.46-2.34s1.42-1.15,2.33-1.51c.92-.36,1.96-.54,3.12-.54s2.19,.09,3.2,.26,1.87,.35,2.58,.54v12.93Zm-9.64-6.33c0,1.46,.32,2.53,.96,3.21,.64,.68,1.46,1.01,2.47,1.01,.55,0,1.07-.08,1.56-.23,.49-.15,.88-.33,1.19-.54v-7.73c-.25-.06-.55-.11-.92-.16-.36-.05-.82-.07-1.37-.07-1.26,0-2.22,.41-2.89,1.24-.67,.83-1,1.92-1,3.27Z"/><path d="M343.94,47.73c0,.65-.21,1.16-.63,1.54-.42,.38-.92,.57-1.49,.57s-1.1-.19-1.52-.57c-.42-.38-.63-.89-.63-1.54s.21-1.19,.63-1.57c.42-.38,.92-.57,1.52-.57s1.07,.19,1.49,.57c.42,.38,.63,.9,.63,1.57Zm-.37,19.29h-3.46v-14.92h3.46v14.92Z"/><path d="M347.15,59.63c0-1.31,.2-2.46,.59-3.45,.39-.99,.91-1.81,1.56-2.47,.65-.66,1.39-1.15,2.23-1.48,.84-.33,1.7-.5,2.57-.5,2.06,0,3.67,.64,4.82,1.91,1.15,1.27,1.73,3.18,1.73,5.71,0,.19,0,.4-.01,.64-.01,.24-.02,.45-.04,.64h-9.87c.1,1.2,.52,2.13,1.27,2.78,.75,.66,1.84,.98,3.28,.98,.84,0,1.61-.08,2.3-.23,.7-.15,1.25-.31,1.65-.48l.46,2.82c-.19,.1-.45,.2-.79,.3-.33,.11-.72,.2-1.14,.29-.43,.09-.89,.16-1.39,.21s-1,.09-1.52,.09c-1.32,0-2.46-.2-3.43-.59-.97-.39-1.77-.93-2.4-1.63-.63-.69-1.1-1.51-1.4-2.45-.31-.94-.46-1.97-.46-3.1Zm10.04-1.54c0-.48-.07-.93-.2-1.36-.13-.43-.33-.8-.59-1.11-.26-.31-.57-.56-.94-.74-.37-.18-.82-.27-1.33-.27s-1,.1-1.4,.3c-.4,.2-.74,.46-1.02,.78-.28,.32-.49,.69-.64,1.11-.15,.42-.26,.85-.31,1.28h6.44Z"/><path d="M383.26,66.56c-.67,.17-1.54,.35-2.6,.53-1.07,.18-2.24,.27-3.52,.27-1.2,0-2.21-.17-3.02-.51-.81-.34-1.46-.82-1.95-1.43-.49-.61-.83-1.34-1.04-2.18-.21-.85-.31-1.77-.31-2.78v-8.36h3.46v7.82c0,1.6,.23,2.74,.7,3.42,.47,.68,1.28,1.03,2.45,1.03,.42,0,.86-.02,1.33-.06,.47-.04,.82-.09,1.04-.14v-12.07h3.46v14.47Z"/><path d="M387.66,52.58c.67-.19,1.53-.37,2.6-.54,1.07-.17,2.25-.26,3.55-.26,1.22,0,2.24,.17,3.06,.5,.82,.33,1.47,.8,1.96,1.4,.49,.6,.83,1.32,1.03,2.17s.3,1.77,.3,2.78v8.39h-3.46v-7.85c0-.8-.05-1.48-.16-2.04-.1-.56-.28-1.02-.52-1.37s-.56-.61-.97-.77c-.41-.16-.91-.24-1.5-.24-.44,0-.9,.03-1.37,.09s-.83,.1-1.06,.14v12.04h-3.46v-14.44Z"/><path d="M417.05,66.56c-.69,.21-1.55,.4-2.59,.57-1.04,.17-2.13,.26-3.28,.26s-2.24-.18-3.18-.54c-.94-.36-1.73-.88-2.39-1.55-.66-.67-1.16-1.49-1.52-2.45-.35-.96-.53-2.04-.53-3.24s.15-2.25,.44-3.21c.3-.96,.73-1.78,1.3-2.47,.57-.69,1.27-1.21,2.09-1.58,.82-.37,1.76-.56,2.83-.56,.72,0,1.36,.09,1.92,.26s1.03,.36,1.43,.57v-7.16l3.46-.57v21.69Zm-9.93-7.05c0,1.52,.36,2.72,1.09,3.58,.72,.87,1.73,1.3,3,1.3,.55,0,1.03-.02,1.42-.07,.39-.05,.71-.1,.96-.16v-8.56c-.31-.21-.71-.4-1.22-.59-.51-.18-1.04-.27-1.62-.27-1.26,0-2.18,.43-2.76,1.28-.58,.86-.87,2.02-.87,3.48Z"/><path d="M167.12,75.78v3.11h-6.09v16.66h-3.63v-16.66h-6.09v-3.11h15.82Z"/><path d="M173.55,76.27c0,.65-.21,1.16-.63,1.54-.42,.38-.92,.57-1.49,.57s-1.1-.19-1.52-.57c-.42-.38-.63-.89-.63-1.54s.21-1.19,.63-1.57c.42-.38,.92-.57,1.52-.57s1.07,.19,1.49,.57c.42,.38,.63,.9,.63,1.57Zm-.37,19.29h-3.46v-14.92h3.46v14.92Z"/><path d="M176.76,88.16c0-1.31,.2-2.46,.59-3.45,.39-.99,.91-1.81,1.56-2.47,.65-.66,1.39-1.15,2.23-1.48,.84-.33,1.7-.5,2.57-.5,2.06,0,3.67,.64,4.82,1.91,1.15,1.27,1.73,3.18,1.73,5.71,0,.19,0,.4-.01,.64-.01,.24-.02,.45-.04,.64h-9.87c.1,1.2,.52,2.13,1.27,2.78,.75,.66,1.84,.98,3.28,.98,.84,0,1.61-.08,2.3-.23,.7-.15,1.25-.31,1.65-.48l.46,2.82c-.19,.1-.45,.2-.79,.3-.33,.11-.72,.2-1.14,.29-.43,.09-.89,.16-1.39,.21s-1,.09-1.52,.09c-1.32,0-2.46-.2-3.43-.59-.97-.39-1.77-.93-2.4-1.63-.63-.69-1.1-1.51-1.4-2.45-.31-.94-.46-1.97-.46-3.1Zm10.04-1.54c0-.48-.07-.93-.2-1.36-.13-.43-.33-.8-.59-1.11-.26-.31-.57-.56-.94-.74-.37-.18-.82-.27-1.33-.27s-1,.1-1.4,.3c-.4,.2-.74,.46-1.02,.78-.28,.32-.49,.69-.64,1.11-.15,.42-.26,.85-.31,1.28h6.44Z"/><path d="M202.45,83.74c-.29-.09-.68-.19-1.19-.3-.51-.1-1.09-.16-1.76-.16-.38,0-.79,.04-1.22,.11-.43,.08-.73,.14-.9,.2v11.96h-3.46v-14.21c.67-.25,1.5-.48,2.5-.7,1-.22,2.11-.33,3.33-.33,.23,0,.5,.01,.8,.04,.3,.03,.61,.07,.92,.11,.3,.05,.6,.1,.89,.17,.29,.07,.52,.13,.69,.19l-.6,2.91Z"/><path d="M245.05,83.74c-.29-.09-.68-.19-1.19-.3-.51-.1-1.09-.16-1.76-.16-.38,0-.79,.04-1.22,.11-.43,.08-.73,.14-.9,.2v11.96h-3.46v-14.21c.67-.25,1.5-.48,2.5-.7,1-.22,2.11-.33,3.33-.33,.23,0,.5,.01,.8,.04,.3,.03,.61,.07,.92,.11,.3,.05,.6,.1,.89,.17,.29,.07,.52,.13,.69,.19l-.6,2.91Z"/><path d="M209.83,95.55c-.96-1.96-1.94-4.21-2.94-6.75-1.01-2.54-1.92-5.26-2.74-8.17h3.69c.21,.84,.45,1.74,.73,2.7,.28,.96,.57,1.92,.89,2.88,.32,.96,.64,1.89,.98,2.8,.34,.9,.65,1.72,.93,2.44,.29-.72,.59-1.54,.92-2.44,.33-.9,.65-1.84,.96-2.8,.32-.96,.62-1.92,.91-2.88,.29-.96,.54-1.86,.75-2.7h3.58c-.82,2.91-1.74,5.64-2.74,8.17-1.01,2.54-1.99,4.79-2.94,6.75h-2.96Z"/><path d="M219.85,88.16c0-1.31,.2-2.46,.59-3.45,.39-.99,.91-1.81,1.56-2.47,.65-.66,1.39-1.15,2.23-1.48,.84-.33,1.7-.5,2.57-.5,2.06,0,3.67,.64,4.82,1.91,1.15,1.27,1.73,3.18,1.73,5.71,0,.19,0,.4-.01,.64-.01,.24-.02,.45-.04,.64h-9.87c.1,1.2,.52,2.13,1.27,2.78,.75,.66,1.84,.98,3.28,.98,.84,0,1.61-.08,2.3-.23,.7-.15,1.25-.31,1.65-.48l.46,2.82c-.19,.1-.45,.2-.79,.3-.33,.11-.72,.2-1.14,.29-.43,.09-.89,.16-1.39,.21s-1,.09-1.52,.09c-1.32,0-2.46-.2-3.43-.59-.97-.39-1.77-.93-2.4-1.63-.63-.69-1.1-1.51-1.4-2.45-.31-.94-.46-1.97-.46-3.1Zm10.04-1.54c0-.48-.07-.93-.2-1.36-.13-.43-.33-.8-.59-1.11-.26-.31-.57-.56-.94-.74-.37-.18-.82-.27-1.33-.27s-1,.1-1.4,.3c-.4,.2-.74,.46-1.02,.78-.28,.32-.49,.69-.64,1.11-.15,.42-.26,.85-.31,1.28h6.44Z"/><path d="M248.01,95.55v-21.57l3.46-.57v7.39c.38-.13,.82-.25,1.33-.34,.51-.1,1.01-.14,1.5-.14,1.2,0,2.2,.17,2.99,.5,.79,.33,1.43,.8,1.9,1.4,.48,.6,.82,1.32,1.02,2.15s.3,1.77,.3,2.8v8.39h-3.46v-7.85c0-.8-.05-1.48-.16-2.04-.1-.56-.28-1.02-.52-1.37s-.56-.61-.96-.77c-.4-.16-.9-.24-1.49-.24-.46,0-.92,.05-1.4,.14s-.83,.18-1.06,.26v11.87h-3.46Z"/><path d="M269.64,80.26c1.14,0,2.11,.14,2.89,.43,.78,.29,1.41,.68,1.87,1.2,.47,.51,.8,1.14,1,1.87,.2,.73,.3,1.54,.3,2.41v9.04c-.53,.11-1.34,.25-2.42,.41-1.08,.16-2.29,.24-3.65,.24-.9,0-1.72-.09-2.46-.26-.74-.17-1.38-.45-1.9-.83-.52-.38-.93-.87-1.23-1.48-.3-.61-.44-1.36-.44-2.25s.17-1.58,.5-2.17c.33-.59,.79-1.07,1.36-1.44,.57-.37,1.23-.64,1.99-.8,.75-.16,1.54-.24,2.36-.24,.38,0,.78,.02,1.2,.07,.42,.05,.87,.13,1.34,.24v-.57c0-.4-.05-.78-.14-1.14-.1-.36-.26-.68-.5-.96-.24-.28-.55-.49-.94-.64s-.88-.23-1.47-.23c-.8,0-1.54,.06-2.2,.17s-1.21,.25-1.63,.4l-.43-2.8c.44-.15,1.08-.3,1.92-.46,.84-.15,1.74-.23,2.69-.23Zm.29,12.87c1.07,0,1.88-.06,2.43-.17v-3.82c-.19-.06-.47-.11-.83-.17-.36-.06-.76-.09-1.2-.09-.38,0-.77,.03-1.16,.09s-.74,.16-1.06,.31c-.31,.15-.57,.37-.76,.64-.19,.28-.29,.62-.29,1.04,0,.82,.26,1.38,.77,1.7,.52,.31,1.21,.47,2.09,.47Z"/><path d="M285.15,95.84c-1.03-.02-1.88-.13-2.56-.34-.68-.21-1.22-.51-1.62-.9-.4-.39-.68-.87-.84-1.46-.16-.58-.24-1.24-.24-1.98v-17.18l3.46-.57v17.09c0,.42,.03,.77,.1,1.06,.07,.29,.19,.53,.36,.73,.17,.2,.4,.35,.7,.46,.3,.1,.67,.19,1.13,.24l-.49,2.85Z"/><path d="M288.27,76.69l3.46-.57v4.51h5.32v2.88h-5.32v6.08c0,1.2,.19,2.05,.57,2.57,.38,.51,1.03,.77,1.95,.77,.63,0,1.19-.07,1.67-.2,.49-.13,.87-.26,1.16-.37l.57,2.74c-.4,.17-.93,.35-1.57,.53-.65,.18-1.41,.27-2.29,.27-1.07,0-1.96-.14-2.68-.43-.71-.29-1.28-.7-1.7-1.24-.42-.54-.71-1.2-.89-1.97s-.26-1.65-.26-2.64v-12.93Z"/><path d="M299.31,88.16c0-1.31,.2-2.46,.59-3.45,.39-.99,.91-1.81,1.56-2.47,.65-.66,1.39-1.15,2.23-1.48,.84-.33,1.7-.5,2.57-.5,2.06,0,3.67,.64,4.82,1.91,1.15,1.27,1.73,3.18,1.73,5.71,0,.19,0,.4-.01,.64-.01,.24-.02,.45-.04,.64h-9.87c.1,1.2,.52,2.13,1.27,2.78,.75,.66,1.84,.98,3.28,.98,.84,0,1.61-.08,2.3-.23,.7-.15,1.25-.31,1.65-.48l.46,2.82c-.19,.1-.45,.2-.79,.3-.33,.11-.72,.2-1.14,.29-.43,.09-.89,.16-1.39,.21s-1,.09-1.52,.09c-1.32,0-2.46-.2-3.43-.59-.97-.39-1.77-.93-2.4-1.63-.63-.69-1.1-1.51-1.4-2.45-.31-.94-.46-1.97-.46-3.1Zm10.04-1.54c0-.48-.07-.93-.2-1.36-.13-.43-.33-.8-.59-1.11-.26-.31-.57-.56-.94-.74-.37-.18-.82-.27-1.33-.27s-1,.1-1.4,.3c-.4,.2-.74,.46-1.02,.78-.28,.32-.49,.69-.64,1.11-.15,.42-.26,.85-.31,1.28h6.44Z"/><path d="M316.48,81.12c.67-.19,1.53-.37,2.6-.54,1.07-.17,2.25-.26,3.55-.26,1.22,0,2.24,.17,3.06,.5,.82,.33,1.47,.8,1.96,1.4,.49,.6,.83,1.32,1.03,2.17s.3,1.77,.3,2.78v8.39h-3.46v-7.85c0-.8-.05-1.48-.16-2.04-.1-.56-.28-1.02-.52-1.37s-.56-.61-.97-.77c-.41-.16-.91-.24-1.5-.24-.44,0-.9,.03-1.37,.09s-.83,.1-1.06,.14v12.04h-3.46v-14.44Z"/><path d="M336.97,93.07c.92,0,1.58-.11,2-.33,.42-.22,.63-.59,.63-1.13,0-.49-.22-.9-.67-1.23-.45-.32-1.19-.68-2.22-1.06-.63-.23-1.21-.47-1.73-.73-.52-.26-.98-.56-1.36-.9-.38-.34-.68-.76-.9-1.24-.22-.48-.33-1.08-.33-1.78,0-1.37,.51-2.45,1.52-3.24,1.01-.79,2.38-1.18,4.12-1.18,.88,0,1.72,.08,2.52,.24,.8,.16,1.4,.32,1.8,.47l-.63,2.8c-.38-.17-.87-.33-1.46-.47-.59-.14-1.28-.21-2.06-.21-.71,0-1.28,.12-1.72,.36-.44,.24-.66,.6-.66,1.1,0,.25,.04,.47,.13,.66,.09,.19,.23,.37,.44,.53,.21,.16,.49,.32,.83,.48,.34,.16,.76,.33,1.26,.5,.82,.3,1.52,.6,2.09,.9,.57,.29,1.04,.63,1.42,1,.37,.37,.64,.79,.82,1.27,.17,.48,.26,1.05,.26,1.71,0,1.43-.53,2.51-1.59,3.24-1.06,.73-2.57,1.1-4.53,1.1-1.32,0-2.38-.11-3.18-.33-.8-.22-1.36-.39-1.69-.53l.6-2.88c.52,.21,1.13,.41,1.85,.6,.72,.19,1.53,.29,2.45,.29Z"/><path d="M346.13,76.69l3.46-.57v4.51h5.32v2.88h-5.32v6.08c0,1.2,.19,2.05,.57,2.57,.38,.51,1.03,.77,1.95,.77,.63,0,1.19-.07,1.67-.2,.49-.13,.87-.26,1.16-.37l.57,2.74c-.4,.17-.93,.35-1.57,.53-.65,.18-1.41,.27-2.29,.27-1.07,0-1.96-.14-2.68-.43-.71-.29-1.28-.7-1.7-1.24-.42-.54-.71-1.2-.89-1.97s-.26-1.65-.26-2.64v-12.93Z"/><path d="M366.78,83.74c-.29-.09-.68-.19-1.19-.3-.51-.1-1.09-.16-1.76-.16-.38,0-.79,.04-1.22,.11-.43,.08-.73,.14-.9,.2v11.96h-3.46v-14.21c.67-.25,1.5-.48,2.5-.7,1-.22,2.11-.33,3.33-.33,.23,0,.5,.01,.8,.04,.3,.03,.61,.07,.92,.11,.3,.05,.6,.1,.89,.17,.29,.07,.52,.13,.69,.19l-.6,2.91Z"/><path d="M374.77,80.26c1.14,0,2.11,.14,2.89,.43,.78,.29,1.41,.68,1.87,1.2,.47,.51,.8,1.14,1,1.87,.2,.73,.3,1.54,.3,2.41v9.04c-.53,.11-1.34,.25-2.42,.41-1.08,.16-2.29,.24-3.65,.24-.9,0-1.72-.09-2.46-.26-.74-.17-1.38-.45-1.9-.83-.52-.38-.93-.87-1.23-1.48-.3-.61-.44-1.36-.44-2.25s.17-1.58,.5-2.17c.33-.59,.79-1.07,1.36-1.44,.57-.37,1.23-.64,1.99-.8,.75-.16,1.54-.24,2.36-.24,.38,0,.78,.02,1.2,.07,.42,.05,.87,.13,1.34,.24v-.57c0-.4-.05-.78-.14-1.14-.1-.36-.26-.68-.5-.96-.24-.28-.55-.49-.94-.64s-.88-.23-1.47-.23c-.8,0-1.54,.06-2.2,.17s-1.21,.25-1.63,.4l-.43-2.8c.44-.15,1.08-.3,1.92-.46,.84-.15,1.74-.23,2.69-.23Zm.29,12.87c1.07,0,1.88-.06,2.43-.17v-3.82c-.19-.06-.47-.11-.83-.17-.36-.06-.76-.09-1.2-.09-.38,0-.77,.03-1.16,.09s-.74,.16-1.06,.31c-.31,.15-.57,.37-.76,.64-.19,.28-.29,.62-.29,1.04,0,.82,.26,1.38,.77,1.7,.52,.31,1.21,.47,2.09,.47Z"/><path d="M388.93,76.27c0,.65-.21,1.16-.63,1.54-.42,.38-.92,.57-1.49,.57s-1.1-.19-1.52-.57c-.42-.38-.63-.89-.63-1.54s.21-1.19,.63-1.57c.42-.38,.92-.57,1.52-.57s1.07,.19,1.49,.57c.42,.38,.63,.9,.63,1.57Zm-.37,19.29h-3.46v-14.92h3.46v14.92Z"/><path d="M392.96,81.12c.67-.19,1.53-.37,2.6-.54,1.07-.17,2.25-.26,3.55-.26,1.22,0,2.24,.17,3.06,.5,.82,.33,1.47,.8,1.96,1.4,.49,.6,.83,1.32,1.03,2.17s.3,1.77,.3,2.78v8.39h-3.46v-7.85c0-.8-.05-1.48-.16-2.04-.1-.56-.28-1.02-.52-1.37s-.56-.61-.97-.77c-.41-.16-.91-.24-1.5-.24-.44,0-.9,.03-1.37,.09s-.83,.1-1.06,.14v12.04h-3.46v-14.44Z"/><path d="M413.57,76.27c0,.65-.21,1.16-.63,1.54-.42,.38-.92,.57-1.49,.57s-1.1-.19-1.52-.57c-.42-.38-.63-.89-.63-1.54s.21-1.19,.63-1.57c.42-.38,.92-.57,1.52-.57s1.07,.19,1.49,.57c.42,.38,.63,.9,.63,1.57Zm-.37,19.29h-3.46v-14.92h3.46v14.92Z"/><path d="M417.6,81.12c.67-.19,1.53-.37,2.6-.54,1.07-.17,2.25-.26,3.55-.26,1.22,0,2.24,.17,3.06,.5,.82,.33,1.47,.8,1.96,1.4,.49,.6,.83,1.32,1.03,2.17s.3,1.77,.3,2.78v8.39h-3.46v-7.85c0-.8-.05-1.48-.16-2.04-.1-.56-.28-1.02-.52-1.37s-.56-.61-.97-.77c-.41-.16-.91-.24-1.5-.24-.44,0-.9,.03-1.37,.09s-.83,.1-1.06,.14v12.04h-3.46v-14.44Z"/><path d="M446.7,94.04c0,2.38-.61,4.12-1.82,5.22-1.21,1.1-3.07,1.65-5.57,1.65-.92,0-1.81-.08-2.68-.23-.87-.15-1.65-.35-2.36-.6l.63-2.94c.59,.25,1.26,.45,2.02,.6,.75,.15,1.57,.23,2.45,.23,1.39,0,2.38-.29,2.98-.86,.59-.57,.89-1.42,.89-2.54v-.57c-.34,.17-.8,.34-1.36,.51-.56,.17-1.21,.26-1.93,.26-.95,0-1.83-.15-2.62-.46-.79-.3-1.47-.75-2.03-1.34-.56-.59-1-1.33-1.32-2.21s-.47-1.91-.47-3.07c0-1.08,.17-2.08,.5-3,.33-.91,.82-1.69,1.46-2.34s1.42-1.15,2.33-1.51c.92-.36,1.96-.54,3.12-.54s2.19,.09,3.2,.26,1.87,.35,2.58,.54v12.93Zm-9.64-6.33c0,1.46,.32,2.53,.96,3.21,.64,.68,1.46,1.01,2.47,1.01,.55,0,1.07-.08,1.56-.23,.49-.15,.88-.33,1.19-.54v-7.73c-.25-.06-.55-.11-.92-.16-.36-.05-.82-.07-1.37-.07-1.26,0-2.22,.41-2.89,1.24-.67,.83-1,1.92-1,3.27Z"/></g></svg>