<svg width="390" height="130" xmlns="http://www.w3.org/2000/svg"><g fill="none"><path d="M43.726 96.524c1.592 0 2.911.136 4.092.319 6.595 1.136 7.46 5.592 7.323 9.05l-7.185-.092c0-1.316-.046-2.863-1.184-3.956-.728-.637-1.909-1.046-3.228-1.046-2.866 0-4.594 1.636-4.594 3.775 0 2.639 2.456 3.456 5.412 4.459l2.365.77c3.866 1.231 9.142 2.958 9.142 9.689 0 1.684-.273 3.32-.955 4.775C52.322 129.68 46.272 130 43.271 130c-2.184 0-3.73-.184-4.912-.411-7.759-1.455-8.04-6.84-8.05-9.695v-.264l7.822.089c0 1.274 0 3.229 1.319 4.594.682.728 2.002 1.411 3.821 1.411 3.229 0 4.958-1.911 4.958-4.548 0-3.003-2.185-3.731-5.413-4.777l-1.819-.636a172.45 172.45 0 01-.997-.322l-.497-.165c-4.29-1.44-8.239-3.31-8.239-9.02 0-9.389 9.396-9.72 12.183-9.732h.279zm-31.596.682c4.048 0 6.868.137 8.823 1.319 2.638 1.593 3.275 4.23 3.275 6.368 0 3.001-1.365 5.367-4.139 6.685-.363.137-.682.272-1.091.41.499.09.955.136 1.409.273.501.09 5.594 1.364 5.594 7.869 0 1.455-.227 2.864-.818 4.183-2.274 4.913-7.459 4.959-11.78 5.002H.032V97.206H12.13zm57.734 0v13.328L79.87 97.206h8.323l-9.642 11.735 11.006 20.374h-8.959l-7.596-13.643-3.138 3.774v9.869H61.95V97.206h7.914zm-59.174 17.33H8.082v10.596l1.819.046c1.819 0 2.82 0 3.866-.183 1.774-.317 3.957-1.409 3.957-5.276 0-.681 0-3.274-2.365-4.503-1.228-.637-2.865-.68-5.049-.68h.38zm-.562-13.145H8.082v9.143h2.723c1.35-.003 2.894-.048 3.917-.774.273-.183 1.728-1.184 1.728-3.913 0-1.137-.227-1.865-.454-2.365-1.092-2.091-3.047-2.091-5.868-2.091z" fill="#0069B4"/><path d="M169.741 73.106c3.93 0 4.89 4.02 4.89 7.23 0 3.27-.96 7.71-5.04 7.71-1.619 0-3.15-.75-3.809-2.281h-.06v8.37h-2.701V73.436h2.701v2.16h.06c.63-1.53 2.34-2.49 3.959-2.49zm-26.399 0c4.59 0 6.3 3.3 6.3 7.47 0 4.14-1.741 7.47-6.3 7.47-4.59 0-6.33-3.3-6.33-7.47 0-4.2 1.74-7.47 6.33-7.47zm60.388-6.09v8.37h.06c.631-1.47 2.16-2.28 3.721-2.28 4.17 0 4.859 4.319 4.859 7.62 0 3.93-1.32 7.32-5.789 7.32-4.11 0-5.55-2.52-5.55-6.241V67.016h2.699zm-20.909 6.09c3.51 0 5.16 2.43 5.16 5.73v.69h-8.279c0 3.18 1.679 6.42 5.249 6.42.96 0 1.8-.181 2.7-.511v2.13c-1.2.271-2.34.481-3.57.481-5.069 0-7.079-3.451-7.079-8.161 0-3.869 1.709-6.779 5.819-6.779zm127.347-4.71v5.04h3.96v2.1h-3.96v7.62c0 1.62.39 2.79 2.28 2.79.48 0 .989-.061 1.44-.21v2.1c-.69.149-1.411.21-2.13.21-2.49 0-4.29-.75-4.29-3.48v-9.03h-2.55v-2.1h2.55v-3.36l2.7-1.68zm11.489 4.71c3.51 0 5.16 2.43 5.16 5.73v.69h-8.279c0 3.18 1.68 6.42 5.249 6.42.96 0 1.8-.181 2.7-.511v2.13c-1.2.271-2.34.481-3.57.481-5.069 0-7.079-3.451-7.079-8.161 0-3.869 1.71-6.779 5.819-6.779zm32.189 0c3.509 0 5.16 2.43 5.16 5.73v.69h-8.28c0 3.18 1.68 6.42 5.25 6.42.959 0 1.799-.181 2.7-.511v2.13c-1.2.271-2.34.481-3.571.481-5.069 0-7.079-3.451-7.079-8.161 0-3.869 1.71-6.779 5.82-6.779zm-133.286 0c3.51 0 5.16 2.43 5.16 5.73v.69h-8.28c0 3.18 1.68 6.42 5.25 6.42.959 0 1.8-.181 2.7-.511v2.13c-1.2.271-2.34.481-3.57.481-5.069 0-7.08-3.451-7.08-8.161 0-3.869 1.71-6.779 5.82-6.779zm67.228 0c3.511 0 5.16 2.43 5.16 5.73v.69h-8.279c0 3.18 1.68 6.42 5.25 6.42.959 0 1.8-.181 2.699-.511v2.13c-1.199.271-2.34.481-3.569.481-5.07 0-7.08-3.451-7.08-8.161 0-3.869 1.71-6.779 5.819-6.779zm-9.209-6.09v20.7h-2.701v-2.19h-.059c-.6 1.619-2.31 2.52-3.961 2.52-3.959 0-4.889-4.02-4.889-7.23 0-3.24.96-7.71 5.04-7.71 1.59 0 3.21.78 3.81 2.31h.059v-8.4h2.701zM109.934.757v87.259h-2V.757h2zm14.598 66.259v9.21h.06l7.019-9.21h3.6l-7.589 9.87 8.189 10.83h-3.63l-7.589-10.05h-.06v10.05h-3v-20.7h3zm107.248 0v9.48h.06c.809-2.04 2.249-3.39 4.53-3.39 2.85 0 3.84 2.22 3.84 4.71v9.9h-2.701v-7.8c0-.571 0-1.17-.03-1.77-.089-1.35-.359-2.34-1.919-2.34-2.641 0-3.78 3.749-3.78 5.85v6.06h-2.701v-20.7h2.701zm105.567 6.09v2.94c-3.45 0-4.47 2.52-4.47 5.61v6.06h-2.7v-14.28h2.7v2.88h.059c.661-1.98 2.311-3.21 4.411-3.21zm32.668-6.09l5.639 17.28h.061l5.699-17.28h3.15l-7.049 20.7h-3.72l-6.93-20.7h3.15zm-171.504 6.09v2.94c-3.45 0-4.47 2.52-4.47 5.61v6.06h-2.7v-14.28h2.7v2.88h.06c.66-1.98 2.31-3.21 4.41-3.21zm167.304 10.47v4.14h-4.139v-4.14h4.139zm23.91 0v4.14h-4.14v-4.14h4.14zm-130.016-10.47c2.85 0 3.84 2.22 3.84 4.71v9.9h-2.7v-7.8c0-.571 0-1.17-.03-1.77-.09-1.35-.36-2.34-1.92-2.34-2.64 0-3.78 3.749-3.78 5.85v6.06h-2.7v-14.28h2.7v3.06h.06c.81-2.04 2.25-3.39 4.53-3.39zm43.768 0v2.94c-3.449 0-4.468 2.52-4.468 5.61v6.06h-2.701v-14.28h2.701v2.88h.059c.659-1.98 2.31-3.21 4.409-3.21zm-143.275 0v2.94c-3.45 0-4.47 2.52-4.47 5.61v6.06h-2.7v-14.28h2.7v2.88h.06c.66-1.98 2.31-3.21 4.41-3.21zm87.447.33v14.279h-2.699V73.436h2.699zm25.11 1.77c-2.485 0-2.776 3.332-2.79 5.224v.146c0 1.89.21 5.37 2.819 5.37 2.431 0 3.09-3.57 3.09-5.4 0-1.98-.51-5.34-3.119-5.34zm-129.417 0c-2.898 0-3.31 2.913-3.33 5.2v.17c0 2.28.36 5.37 3.33 5.37 2.909 0 3.3-3.12 3.3-5.37s-.36-5.37-3.3-5.37zm63.419 0c-2.311 0-3.031 3.57-3.031 5.34 0 1.95-.03 5.4 2.701 5.4 2.639 0 2.939-3.36 2.939-5.311 0-1.71-.24-5.429-2.609-5.429zm-37.98 0c-2.429 0-3.059 3.57-3.059 5.4 0 2.01.48 5.34 3.119 5.34 2.55 0 2.79-3.51 2.79-5.37 0-1.92-.21-5.37-2.85-5.37zm118.858 0c-1.17 0-2.16.57-2.64 1.65-.12.27-.21.569-.21.87h5.46c0-1.53-1.11-2.52-2.61-2.52zm-67.229 0c-1.17 0-2.159.57-2.64 1.65-.12.27-.21.569-.21.87h5.46c0-1.53-1.11-2.52-2.61-2.52zm133.286 0c-1.17 0-2.16.57-2.64 1.65-.121.27-.21.569-.21.87h5.46c0-1.53-1.11-2.52-2.61-2.52zm-171.025 0c-1.17 0-2.159.57-2.639 1.65-.12.27-.21.569-.21.87h5.459c0-1.53-1.11-2.52-2.61-2.52zm138.836 0c-1.17 0-2.159.57-2.639 1.65-.121.27-.211.569-.211.87h5.46c0-1.53-1.11-2.52-2.61-2.52zm-179.455-7.919v3.3h-3.69v-3.3h3.69zm6.179 0v3.3h-3.69v-3.3h3.69zm99.688-.271v3.06h-3.239v-3.06h3.239zm-106.768-26.91c3.511 0 5.16 2.43 5.16 5.73v.69h-8.279c0 3.18 1.679 6.42 5.249 6.42.96 0 1.8-.181 2.7-.511v2.13c-1.2.271-2.339.481-3.569.481-5.07 0-7.08-3.451-7.08-8.161 0-3.869 1.709-6.779 5.819-6.779zm18.689-6.09v8.37h.06c.63-1.47 2.16-2.28 3.72-2.28 4.17 0 4.86 4.319 4.86 7.62 0 3.93-1.32 7.32-5.79 7.32-4.109 0-5.549-2.52-5.549-6.241V34.016h2.699zm15.99 6.09c1.14 0 2.13.3 3.24.51v2.43c-1.05-.48-2.1-.84-3.27-.84-.87 0-2.34.45-2.34 1.53 0 2.34 6.51 2.67 6.51 6.989 0 3.241-2.49 4.321-5.37 4.321-1.32 0-2.58-.21-3.84-.571v-2.37c1.02.45 2.52.841 3.6.841 1.2 0 2.91-.301 2.91-1.83 0-2.4-6.51-2.941-6.51-7.02 0-2.879 2.55-3.99 5.07-3.99zm11.01-4.71v5.04h3.96v2.1h-3.96v7.62c0 1.62.389 2.79 2.28 2.79.48 0 .989-.061 1.44-.21v2.1c-.69.149-1.411.21-2.13.21-2.49 0-4.29-.75-4.29-3.48v-9.03h-2.55v-2.1h2.55v-3.36l2.7-1.68zm53.157 4.71c3.511 0 5.16 2.43 5.16 5.73v.69h-8.279c0 3.18 1.68 6.42 5.25 6.42.959 0 1.8-.181 2.699-.511v2.13c-1.199.271-2.34.481-3.569.481-5.07 0-7.08-3.451-7.08-8.161 0-3.869 1.71-6.779 5.819-6.779zm-112.795-6.42c1.559 0 3.209.21 4.709.601v2.819c-1.59-.51-3.18-1.019-4.859-1.019-1.71 0-3.42.75-3.42 2.699 0 1.681 2.099 2.73 3.36 3.48l2.039 1.2c2.37 1.38 4.35 2.61 4.35 5.7 0 4.32-3.69 5.88-7.469 5.88-1.71 0-3.63-.271-5.25-.811v-3.119c1.649.96 3.569 1.529 5.489 1.529 1.951 0 3.93-.809 3.93-3.059 0-2.161-1.74-3.031-3.359-3.99l-1.891-1.11c-2.279-1.32-4.499-2.43-4.499-5.46 0-3.96 3.419-5.34 6.87-5.34zm92.666.33v20.699h-2.699V34.016h2.699zm-23.639 0v9.48h.06c.81-2.04 2.25-3.39 4.53-3.39 2.85 0 3.84 2.22 3.84 4.71v9.9h-2.7v-7.8c0-.571 0-1.17-.03-1.77-.09-1.35-.36-2.34-1.92-2.34-2.64 0-3.78 3.749-3.78 5.85v6.06h-2.7v-20.7h2.7zm-43.558 0v20.699h-2.7V34.016h2.7zm78.537-.33c.96 0 1.95.061 2.88.271v2.25a10.05 10.05 0 00-2.85-.421c-1.92 0-2.79 1.41-2.79 3.181v1.469h4.26v2.1h-4.26v12.18h-2.699v-12.18h-2.58v-2.1h2.58v-1.65c0-3.569 2.039-5.1 5.459-5.1zm-19.109 6.75v14.279h-2.7V40.436h2.7zm-49.228 1.77c-2.311 0-3.031 3.57-3.031 5.34 0 1.95-.03 5.4 2.7 5.4 2.572 0 2.923-3.19 2.94-5.158v-.153c0-1.71-.24-5.429-2.609-5.429zm-21.87 0c-1.17 0-2.159.57-2.639 1.65-.12.27-.21.569-.21.87h5.459c0-1.53-1.11-2.52-2.61-2.52zm98.847 0c-1.17 0-2.16.57-2.64 1.65-.12.27-.21.569-.21.87h5.46c0-1.53-1.11-2.52-2.61-2.52zm-27.479-8.19v3.06h-3.239v-3.06h3.239zm51.599-26.91c3.119 0 4.679 1.53 4.679 4.59v10.02h-2.699v-1.77h-.06c-.63 1.38-2.221 2.1-3.69 2.1-2.4 0-4.051-1.38-4.051-3.84 0-4.02 4.71-4.68 7.801-4.68v-2.49c0-.18-.06-.3-.121-.48-.33-.93-1.109-1.35-2.069-1.35-1.38 0-2.281.81-2.281 2.19h-2.849c0-3.18 2.49-4.29 5.34-4.29zm-123.957.33v7.8c0 .6 0 1.17.03 1.77.09 1.35.36 2.339 1.92 2.339 2.64 0 3.78-3.75 3.78-5.849v-6.06h2.699v14.28h-2.699v-3.06h-.06c-.75 2.04-2.28 3.39-4.53 3.39-2.85 0-3.84-2.22-3.84-4.71v-9.9h2.7zm107.037-6.42v8.37h.06c.629-1.47 2.16-2.28 3.72-2.28 4.169 0 4.859 4.319 4.859 7.62 0 3.93-1.319 7.32-5.79 7.32-4.109 0-5.548-2.52-5.548-6.241V1.016h2.699zm-20.909 6.09c3.51 0 5.16 2.43 5.16 5.73v.69h-8.281c0 3.18 1.68 6.42 5.25 6.42.96 0 1.801-.181 2.701-.511v2.13c-1.201.271-2.34.481-3.57.481-5.07 0-7.08-3.451-7.08-8.161 0-3.869 1.709-6.779 5.82-6.779zm72.989-6.09v20.7h-2.701v-2.19h-.059c-.6 1.619-2.31 2.52-3.961 2.52-3.959 0-4.889-4.02-4.889-7.23 0-3.24.959-7.71 5.04-7.71 1.589 0 3.21.78 3.81 2.31h.059v-8.4h2.701zm-119.938 0v20.7h-2.7v-2.19h-.059c-.6 1.619-2.31 2.52-3.96 2.52-3.96 0-4.89-4.02-4.89-7.23 0-3.24.96-7.71 5.04-7.71 1.589 0 3.21.78 3.81 2.31h.059v-8.4h2.7zm21.69 6.09c1.14 0 2.13.3 3.24.51v2.43c-1.051-.48-2.1-.84-3.27-.84-.87 0-2.34.45-2.34 1.53 0 2.34 6.509 2.67 6.509 6.989 0 3.241-2.489 4.321-5.369 4.321-1.32 0-2.58-.21-3.84-.571v-2.37c1.02.45 2.52.841 3.6.841 1.2 0 2.909-.301 2.909-1.83 0-2.4-6.509-2.941-6.509-7.02 0-2.88 2.55-3.99 5.07-3.99zm-12.48 0c3.511 0 5.16 2.43 5.16 5.73v.69h-8.279c0 3.18 1.679 6.42 5.249 6.42.96 0 1.801-.181 2.7-.511v2.13c-1.2.271-2.339.481-3.569.481-5.07 0-7.08-3.451-7.08-8.161 0-3.869 1.709-6.779 5.819-6.779zm53.428 0v2.94c-3.45 0-4.47 2.52-4.47 5.61v6.06h-2.7V7.436h2.7v2.88h.061c.659-1.98 2.308-3.21 4.409-3.21zm-114.327-6.09c3.09 0 5.4 1.62 5.4 4.92 0 2.34-1.02 3.93-3.21 4.74v.06c2.82.42 4.2 2.55 4.2 5.31 0 4.259-2.82 5.67-6.629 5.67h-5.73v-20.7h5.969zm32.82 6.09c2.849 0 3.84 2.22 3.84 4.71v9.9h-2.701v-7.8c0-.571 0-1.17-.029-1.77-.09-1.35-.36-2.34-1.92-2.34-2.64 0-3.78 3.749-3.78 5.85v6.06h-2.7V7.436h2.7v3.06h.06c.81-2.04 2.249-3.39 4.53-3.39zm48.599.33l3.72 10.38h.06l3.329-10.38h3l-4.95 14.28h-2.76l-5.399-14.28h3zm71.338-.33c2.849 0 3.84 2.22 3.84 4.71v9.9h-2.701v-7.8c0-.571 0-1.17-.029-1.77-.09-1.35-.36-2.34-1.92-2.34-2.64 0-3.78 3.749-3.78 5.85v6.06h-2.7V7.436h2.7v3.06h.059c.811-2.04 2.25-3.39 4.531-3.39zm-14.31 8.22h-.541c-1.68 0-4.26.72-4.26 2.79 0 .899.571 1.83 1.561 1.83 1.859 0 3.24-2.101 3.24-3.811v-.809zm-15.87-6.12c-2.31 0-3.03 3.57-3.03 5.34 0 1.95-.03 5.4 2.7 5.4 2.64 0 2.94-3.36 2.94-5.311 0-1.71-.24-5.429-2.61-5.429zm43.23 0c-2.485 0-2.776 3.332-2.79 5.224v.146c0 1.89.209 5.37 2.819 5.37 2.431 0 3.09-3.57 3.09-5.4 0-1.98-.51-5.34-3.119-5.34zm-119.937 0c-2.485 0-2.776 3.332-2.79 5.224v.146c0 1.89.209 5.37 2.819 5.37 2.431 0 3.09-3.57 3.09-5.4 0-1.98-.51-5.34-3.119-5.34zm-46.83 2.79h-2.009v7.319h2.309c2.22 0 4.051-1.17 4.051-3.539 0-2.67-1.92-3.78-4.351-3.78zm99.448-2.79c-1.17 0-2.16.57-2.64 1.65-.12.27-.209.569-.209.87h5.459c0-1.53-1.11-2.52-2.61-2.52zm-37.739 0c-1.169 0-2.159.57-2.639 1.65-.12.27-.21.569-.21.87h5.459c0-1.53-1.11-2.52-2.61-2.52zm-62.008-5.789h-1.71v6.179h1.889c2.07 0 3.48-.87 3.48-3.12 0-2.55-1.469-3.059-3.659-3.059z" fill="#1A1919"/><path d="M80.084 71.13h-17.14a1.38 1.38 0 00-1.378 1.378 1.38 1.38 0 001.378 1.377h13.564A2.049 2.049 0 0177.9 75.82a2.053 2.053 0 01-2.052 2.053H61.104c-3.752 2.303-16.754-2.064-17.963-2.107-2.301-.078-4.271-.216-6.441-.216-.271 0-.068-19.155-.068-19.155 10.495-.93 9.56-9.41 16.65-9.41.62 0 .127.692.127 1.312 0 1.124.585 2.988.585 4.112 0 1.024 1.574 1.299 3.156 1.468h19.757c1.134 0 2.052.919 2.052 2.052 0 .938-.631 1.72-1.49 1.965H63.466c-.166 0-.322.034-.47.088h-.366c.041.039.073.083.113.122a1.375 1.375 0 00.723 2.546h16.682a2.049 2.049 0 011.313 1.91c0 .923-.614 1.695-1.453 1.953H65.967a1.38 1.38 0 00-1.378 1.378c0 .76.619 1.378 1.378 1.378h14.182a2.045 2.045 0 011.347 1.92c0 .908-.594 1.67-1.412 1.941zM33.33 57.207v19.755a2.047 2.047 0 01-4.018.562V63.521a1.38 1.38 0 00-.087-.47v-.365c-.039.041-.083.073-.122.113a1.373 1.373 0 00-2.546.722v16.685a2.05 2.05 0 01-1.91 1.312 2.046 2.046 0 01-1.952-1.449V66.022a1.38 1.38 0 00-1.378-1.378 1.38 1.38 0 00-1.378 1.378V80.2a2.046 2.046 0 01-1.923 1.353 2.044 2.044 0 01-1.939-1.41V63a1.38 1.38 0 00-1.378-1.378A1.38 1.38 0 0013.321 63v13.601a2.047 2.047 0 01-3.987-.662V61.16c-2.306-3.747 2.063-16.754 2.105-17.964.081-2.301.219-4.271.219-6.44 0-.272 19.154-.069 19.154-.069.93 10.495 9.41 9.561 9.41 16.651 0 .62-.693.126-1.312.126-1.124 0-2.989.585-4.112.585-1.025 0-1.3 1.575-1.468 3.158zM7.993 31.278c0-.938.632-1.721 1.491-1.966h14.002c.165 0 .322-.033.469-.087h.367c-.041-.039-.073-.083-.114-.122a1.375 1.375 0 00-.722-2.547H6.803a2.048 2.048 0 01-1.313-1.909c0-.923.613-1.695 1.451-1.953h14.045a1.38 1.38 0 001.378-1.378 1.38 1.38 0 00-1.378-1.378H6.789a2.045 2.045 0 01-1.351-1.921c0-.908.594-1.67 1.412-1.941h17.157a1.38 1.38 0 001.378-1.378 1.38 1.38 0 00-1.378-1.377H10.462a2.048 2.048 0 01.662-3.987h14.724c3.747-2.306 16.753 2.064 17.964 2.105 2.3.08 4.271.218 6.44.218.271 0 .069 19.155.069 19.155-10.496.93-9.561 9.41-16.652 9.41-.619 0-.125-.693-.125-1.312 0-1.124-.586-2.989-.586-4.112 0-1.024-1.571-1.299-3.152-1.468H10.045a2.052 2.052 0 01-2.052-2.052zm45.468-1.045V10.478a2.048 2.048 0 014.018-.564v14.005c0 .166.034.324.088.471v.364c.038-.04.082-.073.121-.113.244.392.674.656 1.168.656a1.38 1.38 0 001.378-1.378V7.177a2.05 2.05 0 011.91-1.313c.923 0 1.694.613 1.953 1.451v14.104a1.38 1.38 0 001.378 1.378 1.38 1.38 0 001.378-1.378V7.215a2.045 2.045 0 011.921-1.351c.908 0 1.67.594 1.94 1.412v17.165a1.38 1.38 0 001.378 1.378 1.38 1.38 0 001.378-1.378V10.895a2.046 2.046 0 011.934-1.389c1.134 0 2.053.918 2.053 2.052V26.28c2.305 3.749-2.062 16.754-2.105 17.964-.08 2.301-.219 4.271-.219 6.441 0 .271-19.154.069-19.154.069-.93-10.496-9.41-9.561-9.41-16.652 0-.619.692-.125 1.313-.125 1.122 0 2.988-.586 4.111-.586 1.025 0 1.3-1.576 1.468-3.158zM0 87.854h87.097V.757H0v87.097z" fill="#0069B4"/></g></svg>