<?xml version="1.0" encoding="UTF-8" standalone="no"?>
<svg
   xmlns:dc="http://purl.org/dc/elements/1.1/"
   xmlns:cc="http://creativecommons.org/ns#"
   xmlns:rdf="http://www.w3.org/1999/02/22-rdf-syntax-ns#"
   xmlns:svg="http://www.w3.org/2000/svg"
   xmlns="http://www.w3.org/2000/svg"
   viewBox="0 0 227.78667 121.68"
   height="121.68"
   width="227.78667"
   xml:space="preserve"
   id="svg2"
   version="1.1"><metadata
     id="metadata8"><rdf:RDF><cc:Work
         rdf:about=""><dc:format>image/svg+xml</dc:format><dc:type
           rdf:resource="http://purl.org/dc/dcmitype/StillImage" /></cc:Work></rdf:RDF></metadata><defs
     id="defs6" /><g
     transform="matrix(1.3333333,0,0,-1.3333333,0,121.68)"
     id="g10"><g
       transform="scale(0.1)"
       id="g12"><path
         id="path14"
         style="fill:#877838;fill-opacity:1;fill-rule:nonzero;stroke:none"
         d="m 1446,665.484 c -3.56,-6.863 -6.54,-12.597 -9.54,-18.351 3.2,-0.02 5.69,0.812 7.4,2.066 1.93,1.414 1.04,3.442 1.4,5.196 0.22,1.074 0.66,2.132 0.71,3.21 0.11,2.278 0.03,4.563 0.03,7.879 z m -25.43,58.629 c -0.4,0.059 -0.8,0.117 -1.2,0.18 -0.27,-0.508 -0.66,-0.984 -0.81,-1.527 -2.31,-8.09 -4.54,-16.203 -6.9,-24.282 -1.35,-4.644 -2.05,-9.539 -4.52,-13.679 -3.03,2.742 -2.1,7.605 -6.02,9.941 -1.86,-4.402 -3.68,-8.359 -5.2,-12.43 -1.02,-2.757 -1.79,-5.64 -2.36,-8.531 -0.39,-1.972 0.31,-3.859 2.49,-4.476 5.31,-1.504 10.76,-2.18 16.27,-1.559 4.76,0.535 7.71,2.902 8.25,6.934 0.97,7.203 3.15,14.066 5.99,20.64 3.71,8.606 8.61,16.449 18.37,19.477 2.14,0.664 2.86,1.949 3.13,4.086 0.69,5.41 1.65,10.781 2.48,16.176 0.22,1.48 0.74,3.062 -1.18,4.796 -9.36,-8.777 -18.63,-17.476 -28.79,-27.007 0,4.574 0,7.918 0,11.261 z m 85.8,-200.008 c 5.93,6.422 11.22,12.418 16.81,18.129 5.53,5.649 11.35,11.004 17.04,16.485 -0.11,0.324 -0.21,0.648 -0.32,0.972 -1.94,0.036 -3.96,0.438 -5.8,0.039 -8.1,-1.738 -15.3,-5.3 -21.45,-10.964 -3.11,-2.864 -6.41,-5.524 -9.69,-8.2 -1.05,-0.859 -2.28,-1.488 -3.62,-2.336 -0.55,0.825 -1.14,1.301 -1.15,1.797 -0.2,5.793 -0.5,11.59 -0.37,17.379 0.11,4.52 0.63,9.043 1.25,13.528 0.84,6.097 3.06,11.742 6.22,17.027 0.52,0.859 0.68,1.93 1,2.902 -1.12,0.215 -2.27,0.715 -3.36,0.598 -5.41,-0.578 -8.99,-4.285 -12.26,-8.035 -7.17,-8.231 -12.23,-17.801 -16.35,-27.84 -2.31,-5.613 -4.11,-11.43 -6.18,-17.137 -0.14,-0.394 -0.59,-0.679 -1.22,-1.363 -2.16,10.656 -1.93,21.109 -2.19,31.535 -0.26,10.645 2.83,20.668 5.61,30.887 -1.95,1.176 -3.08,-0.27 -4.18,-1.153 -6.74,-5.378 -13.42,-10.824 -20.12,-16.261 -6.3,-5.121 -12.58,-10.262 -19.56,-15.949 3.12,11.191 5.73,21.687 8.99,31.972 3.22,10.184 7.1,20.16 10.68,30.231 -0.25,0.226 -0.49,0.453 -0.74,0.683 -1.74,-0.89 -3.56,-1.648 -5.2,-2.691 -11.8,-7.512 -21.09,-17.727 -30.15,-28.164 -6.26,-7.211 -12.36,-14.567 -18.51,-21.883 -0.39,-0.473 -0.55,-1.145 -0.81,-1.723 -0.37,0.227 -0.73,0.453 -1.09,0.68 0.79,4.988 1.61,9.973 2.35,14.969 0.56,3.715 0.91,7.461 1.54,11.16 2.23,12.922 5.15,25.668 10.48,37.723 1.05,2.378 2.53,4.566 4.09,7.328 -11.4,4.062 -23.11,4.527 -33.95,8.058 0.34,5.227 0.82,10.168 0.93,15.121 0.05,2.129 -0.75,4.262 -0.97,6.411 -0.16,1.503 -0.09,3.05 0.05,4.562 0.24,2.617 0.8,5.219 0.83,7.832 0.02,0.984 -1.05,1.981 -1.62,2.973 -0.77,-0.649 -1.77,-1.16 -2.28,-1.977 -4.03,-6.371 -6.97,-13.265 -9.32,-20.402 -5.77,-17.59 -8.43,-35.66 -7.21,-54.137 0.8,-12.207 3.24,-24.109 9.16,-35.082 2.63,-4.871 3.74,-10.16 3.82,-15.797 0.14,-9.035 -8.13,-22.308 -19.5,-26.578 -2.07,-0.777 -3.46,0.039 -4.18,1.836 -1.5,3.773 -2.88,7.594 -4.14,11.453 -0.61,1.863 -0.58,3.613 1.67,4.777 1.49,0.774 2.78,2.055 3.94,3.313 3.35,3.621 4.29,8.508 1.67,12.531 -6.78,10.414 -8.81,22.145 -10.71,34.082 -0.8,5 -1.46,9.942 -1.16,14.934 0.4,6.543 1.07,13.082 1.96,19.578 1.01,7.434 2.25,14.84 3.62,22.215 2.51,13.469 6.55,26.433 14.82,37.562 3.15,4.227 7.33,7.688 11.1,11.434 1.2,1.195 2.6,2.195 3.7,3.113 -2.41,5.238 -4.69,10.172 -7.21,15.653 -2.05,-1.715 -3.66,-2.911 -5.08,-4.297 -1.84,-1.797 -3.57,-2.614 -5.71,0.894 -1.49,-3.023 -2.72,-5.297 -3.75,-7.656 -1.42,-3.281 -3.25,-5.32 -7.4,-4.965 -4.44,0.379 -4.96,-0.351 -6.51,-4.48 -0.49,-1.313 -1.26,-2.575 -1.5,-3.93 -0.54,-3.098 -2.68,-4.652 -5.34,-5.281 -2.37,-0.559 -3.28,-1.961 -4.02,-4.008 -1.28,-3.52 -2.79,-6.957 -4.25,-10.559 -1.4,-0.156 -2.73,-0.308 -4.27,-0.48 -1.19,-4.488 -2.59,-8.805 -3.43,-13.231 -0.72,-3.765 -2.39,-6.687 -5.34,-9.062 -1.94,-1.57 -3.71,-3.356 -5.92,-5.375 1.19,-1.516 2.3,-2.93 3.6,-4.59 -6.73,-6.437 -14.94,-10.289 -24.12,-13.234 1.09,-1.661 1.81,-2.762 2.9,-4.43 -7.39,-4.445 -14.41,-9.152 -21.86,-13.02 -7.62,-3.949 -15.48,-7.597 -23.57,-10.421 -7.85,-2.747 -16.13,-4.282 -24.22,-6.344 -0.06,-0.395 -0.12,-0.789 -0.18,-1.184 2.24,-1.258 4.39,-2.699 6.73,-3.734 6.46,-2.867 13.35,-4.266 20.23,-5.723 6.09,-1.297 12.12,-2.906 18.17,-4.433 0.56,-0.141 1.03,-0.657 2.07,-1.344 -14.14,-4.516 -27.92,-8.363 -42.12,-10.813 -14.19,-2.449 -28.48,-3.297 -43.8,-3.113 1.09,-1.531 1.41,-2.543 2.03,-2.773 6.88,-2.579 13.81,-4.965 21.16,-5.977 8.49,-1.172 16.94,-2.652 25.54,-4.445 -11.9,-7.067 -23.9,-13.774 -36.94,-18.371 -13.25,-4.668 -26.99,-6.555 -40.87,-6.731 -0.75,-1.969 0.07,-2.793 1.39,-3.18 4.94,-1.441 9.84,-3.078 14.85,-4.148 6.05,-1.293 12.2,-2.086 18.6,-4 -6.1,-3.641 -12.05,-7.582 -18.36,-10.832 -6.3,-3.246 -12.95,-5.801 -20.24,-9 4.9,-3.207 9.78,-1.746 14.21,-2.508 4.56,-0.785 9.21,-1.066 13.87,-2.004 -24.92,-16.672 -51.52,-28.472 -82.65,-29.832 2.5,-3.465 5.64,-3.98 8.47,-4.679 6.52,-1.61 13.07,-3.067 19.88,-3.18 3.18,-0.051 6.35,-1.192 10.08,-1.949 -5.84,-4.028 -11.35,-7.813 -16.83,-11.614 -3.6,-2.5 -7.1,-5.168 -10.81,-7.476 -1.8,-1.113 -3.99,-2.195 -6.01,-2.227 -12.73,-0.183 -25.46,-0.066 -38.19,-0.031 -0.29,0 -0.57,0.195 -1.05,0.375 8.75,2.379 16.82,5.777 24.59,11.969 -6.78,3.41 -13.09,6.285 -19.1,9.687 -6.27,3.543 -12.41,7.364 -18.3,11.485 -5.74,4.015 -41.112,8.566 -46.643,12.879 0.102,0.324 0.199,0.644 0.297,0.968 1.113,0.145 32.226,0.403 33.336,0.41 11.16,0.067 22.32,-0.054 33.47,0.18 8.16,0.168 16.32,0.531 24.43,1.297 5.58,0.527 11.09,1.859 16.61,2.914 0.67,0.125 1.24,0.766 2.53,1.621 -1.73,1.254 -2.98,2.301 -4.36,3.137 -9.02,5.476 -17.64,11.461 -24.41,19.703 -4.08,4.949 -8.02,10.004 -10.93,16.762 1.71,-0.282 2.85,-0.293 3.87,-0.664 8.95,-3.278 17.74,-7.024 26.83,-9.828 9.84,-3.04 19.97,-3.848 30.07,-0.774 0.4,0.121 0.73,0.469 1.66,1.086 -6.69,6.422 -12.5,13.277 -16.98,21.188 -4.46,7.863 -8.33,15.96 -11.72,25.148 1.78,-0.41 2.88,-0.441 3.76,-0.898 9.74,-5.067 19.92,-9.055 30.49,-11.903 8.63,-2.324 17.46,-3.59 26.43,-1.719 0.75,0.161 1.51,0.426 2.2,0.77 0.67,0.324 1.25,0.812 1.93,1.277 -0.38,0.614 -0.54,1.102 -0.87,1.356 -10.13,7.648 -16.08,18.293 -20.71,29.691 -3.37,8.328 -5.95,16.977 -8.88,25.485 0.28,0.253 0.56,0.507 0.84,0.765 1.36,-0.851 2.76,-1.644 4.08,-2.562 9.01,-6.274 18.1,-12.492 28.58,-16.039 5.27,-1.786 10.84,-2.996 16.37,-3.641 3.11,-0.363 6.46,0.809 9.63,1.566 2.08,0.5 2.4,1.825 1.01,3.426 -1.24,1.418 -2.72,2.613 -3.97,4.016 -6.54,7.316 -9.84,15.801 -9.4,26.222 1.9,0 3.57,0.196 5.18,-0.031 8.69,-1.219 17.41,-2.683 26.18,-2.062 7.24,0.511 14.61,1.203 21.74,4.98 -0.46,1.563 -0.71,3.063 -1.32,4.399 -5.81,12.679 -10.99,25.597 -15.05,38.937 -1.99,6.52 -3.72,13.117 -5.08,19.926 11.92,-13.367 22.81,-27.457 34.87,-40.699 -1.29,10.336 -5.04,19.867 -7.72,30.5 7.99,-3.821 14.22,-9.727 22.74,-13.754 -2.17,9.07 -6.46,16.488 -9.09,25.523 12.18,-4.992 21.83,-12.898 34.29,-15.957 1.28,4.824 0.52,9.344 0.61,13.785 0.11,4.711 0.04,9.43 0.04,14.145 0,4.531 0,9.058 0.73,13.937 1.97,-2.89 3.94,-5.773 5.9,-8.675 1.31,-1.95 2.52,-3.977 3.93,-5.856 0.57,-0.769 1.54,-1.238 2.84,-2.238 4.3,14.301 8.4,27.973 12.77,42.523 2.15,-7.508 4.12,-14.355 6.08,-21.203 0.4,0.016 0.79,0.028 1.19,0.039 4.05,12.731 6.45,25.934 11,38.856 2.64,-6.668 5.29,-13.332 8.3,-20.922 10.44,11.676 18.73,23.937 29.37,34.683 0,-5.039 0,-10.078 0,-16.039 8.76,4.797 15.69,10.618 23.08,15.7 7.33,5.035 14.48,10.312 22.03,15.218 -4.47,-10.793 -11.38,-20.269 -15.94,-31.144 1.25,-0.164 2,-0.258 2.74,-0.356 -1.01,-5.793 -3.86,-11.066 -4.96,-16.777 0.41,-0.203 0.82,-0.406 1.23,-0.609 1.34,1.793 2.69,3.589 4.17,5.574 3.17,-1.445 4.66,1.265 6.7,2.816 1.95,1.485 3.97,2.875 6.59,4.766 -1.92,-4.656 -3.55,-8.594 -5.4,-13.082 3.29,0.203 4.85,2.09 6.5,3.515 12.08,10.481 24.04,21.086 36.1,31.582 2.46,2.141 5.16,3.993 8.25,6.364 -1.9,-6.086 -5.07,-11.153 -6.19,-18.051 12.45,6.16 23.58,12.543 35.74,18.918 -5.13,-13.707 -14.2,-24.82 -16.52,-39.938 6.83,3.258 11.09,8.168 17.37,12.036 -4.02,-11.008 -7.7,-21.086 -11.81,-32.321 9.07,2.789 15.7,8.18 24.15,10.375 -1.66,-2.508 -3.28,-5.039 -4.97,-7.523 -7.12,-10.481 -14.59,-20.746 -19.59,-32.504 -1.09,-2.563 -2.55,-5.023 -2.08,-8.363 3.45,0.726 5.03,3.664 7.42,5.379 2.42,1.73 4.65,3.73 6.97,5.609 2.4,1.961 4.81,3.922 8.06,6.562 -5.32,-14.937 -10.29,-28.898 -15.56,-43.726 7.37,1.027 13.46,3.754 20.59,5.144 -5.02,-13.121 -12.66,-24.257 -21.07,-34.961 0.24,-0.253 0.48,-0.511 0.72,-0.765 1.46,0.148 2.93,0.246 4.37,0.457 5.87,0.859 11.71,1.973 17.6,2.574 7.17,0.734 14.37,1.266 21.57,1.469 4.35,0.125 8.73,-0.52 13.09,-0.86 0.4,-0.031 0.79,-0.367 1.75,-0.843 -12.58,-8.715 -26.96,-13.567 -39.33,-22.383 1.89,-2.09 3.88,-1.277 5.6,-1.301 7.85,-0.105 15.7,0.106 23.55,-0.172 4.03,-0.14 8.05,-0.937 12.04,-1.664 5.81,-1.051 11.59,-2.308 17.49,-4.398 -3.44,-1.578 -6.92,-3.078 -10.32,-4.75 -8.5,-4.188 -16.28,-9.422 -22.82,-16.34 -1.66,-1.762 -3.02,-3.813 -5.23,-6.641 2.25,0.176 3.24,0.207 4.22,0.336 8.74,1.129 17.53,2.078 26.06,-0.879 6.62,-2.297 11.95,-6.754 16.93,-11.621 3.24,-3.176 6.61,-6.23 10.42,-9.808 -1.69,-1.063 -2.6,-1.817 -3.65,-2.266 -6.59,-2.848 -13.24,-5.543 -19.8,-8.465 -3.7,-1.652 -7.27,-3.621 -10.88,-5.476 -0.95,-0.493 -1.85,-1.094 -2.81,-1.664 1.85,-2.375 3.56,-1.915 4.97,-1.754 12.6,1.406 23.79,-2.539 34.37,-8.864 2.54,-1.519 5.05,-3.086 7.72,-4.722 -2.61,-6.211 -6.91,-10.903 -11.9,-15.77 6.75,-2.801 13.24,-3.058 19.68,-3.797 7.7,-0.883 15.46,-1.726 23.5,-5.289 -5.77,-5.191 -11.09,-9.984 -16.42,-14.773 0.16,-0.391 0.31,-0.781 0.47,-1.172 6.69,1.039 13.36,2.723 20.05,0.445 6.92,-2.355 10.98,-8.023 16.24,-13.191 -7.09,-5.82 -15.2,-10.324 -18.66,-19.047 0.21,-0.301 0.42,-0.598 0.63,-0.895 4.28,2.286 8.39,4.989 12.88,6.735 4.59,1.789 9.45,3.109 14.58,2.23 4.91,-0.84 9.85,-1.496 15.52,-2.34 -1.73,-3.668 -3.2,-6.796 -4.86,-10.32 1.57,-0.324 2.57,-0.621 3.59,-0.734 19.36,-2.106 33.55,-11.336 40.77,-29.895 2.67,-6.851 2.83,-13.972 1.51,-21.254 -2.13,-11.707 -8.37,-21.195 -15.93,-29.863 -5.87,-6.73 -12.5,-12.793 -18.53,-19.387 -2.94,-3.215 -5.5,-6.843 -7.87,-10.519 -2.59,-3.992 -3.79,-8.578 -3.94,-13.321 -0.15,-5.003 -0.04,-9.957 1.14,-14.957 1.02,-4.343 0.8,-8.976 1.14,-13.73 -11.27,1.574 -21.51,6.16 -31.34,12.559 -0.96,-3.008 0.29,-4.887 1.46,-6.622 4.28,-6.359 8.64,-12.668 13.05,-18.937 3.4,-4.828 6.92,-9.57 10.39,-14.352 -0.21,-0.273 -0.43,-0.543 -0.64,-0.812 -2.08,0.516 -4.18,0.933 -6.22,1.566 -7.44,2.321 -14.85,4.758 -22.29,7.075 -9.71,3.019 -18.45,7.73 -25.93,14.667 -0.32,0.297 -0.71,0.52 -1.81,1.321 0.5,-6.196 3.07,-11.141 4.35,-16.367 1.33,-5.442 3.36,-10.707 5.1,-16.079 -4.97,-0.394 -20.64,6.653 -31.36,13.75 -9.63,6.375 -18.03,13.938 -24.17,24.286 -2.42,-2.832 -2.82,-5.625 -2.27,-8.375 0.95,-4.731 2.04,-9.469 3.53,-14.047 3.57,-10.879 8.98,-20.946 14.15,-31.114 1.09,-2.16 2.06,-4.39 2.74,-6.898 -22.68,11.211 -40.56,28.188 -57.15,47.797 -1.37,-4.813 0,-8.594 1.41,-11.973 3.6,-8.644 7.78,-17.047 11.72,-25.551 0.77,-1.644 1.51,-3.296 2.4,-5.269 -10.29,-0.789 -19.83,0.019 -29.49,3.477 0.37,-3.844 2.56,-5.571 4.31,-7.438 5.12,-5.457 11.58,-9.074 18.06,-12.613 6.16,-3.375 12.35,-6.711 18.68,-10.149 -8.71,-6.808 -35.3,-13.207 -63.38,-7.211 0.75,-1.554 1.13,-2.8 1.86,-3.797 10.26,-14.128 21.64,-27.261 34.62,-38.976 0.9,-0.813 1.64,-1.801 2.67,-2.949 -7.31,-2.317 -14.34,-2.75 -21.52,-1.301 -1.85,0.371 -3.74,0.508 -5.61,0.715 -3.58,0.39 -7.15,0.801 -10.74,1.109 -1.5,0.133 -3.02,0.024 -5.69,0.024 1.59,-1.625 2.25,-2.719 3.22,-3.223 4.84,-2.527 9.64,-5.227 14.7,-7.254 7.68,-3.07 15.58,-5.578 23.34,-8.445 2.31,-0.856 4.47,-2.106 7.6,-3.606 -8.64,-3.207 -16.38,-6.261 -24.25,-8.949 -7.86,-2.687 -15.85,-5.004 -24.6,-7.738 13.74,-8.114 28.65,-9.762 43.87,-13.907 -3.62,-1.98 -6.31,-3.648 -9.17,-4.988 -12.03,-5.6482 -24.4,-10.5076 -37.21,-13.992 -6.12,-1.6641 -12.34,-3.4492 -18.87,-3.457 -4.36,-0.0039 -8.71,-0.8086 -13.07,-1.1016 -1.5,-0.1016 -3.03,0.2539 -5.17,0.4609 0.21,3.2891 0.28,6.2149 0.63,9.1055 0.35,2.9375 0.99,5.8438 1.56,9.0902 7.57,1.277 16.04,-1.3636 23.78,4.172 -9.85,5.492 -17.47,12.375 -23.27,21.062 -5.65,8.465 -10.01,17.57 -12.28,28.441 13.01,-5.558 24.83,-12.601 38.43,-14.39 0.21,0.367 0.42,0.73 0.63,1.094 -2.22,1.836 -4.44,3.668 -6.65,5.507 -9.7,8.063 -14.82,18.532 -15.38,30.996 -0.44,9.696 -0.09,19.426 -0.09,30.004 8.02,-9.453 15.17,-18.789 25.62,-24.449 0.26,0.235 0.52,0.465 0.78,0.699 -1.47,2.102 -2.93,4.207 -4.4,6.309 -6.9,9.887 -10.68,20.75 -10.63,32.918 0.04,8.176 0.98,16.199 3.2,24.84 1.22,-1.223 2.21,-2.055 3.02,-3.039 6.7,-8.141 13.96,-15.684 23.15,-21.086 2.37,-1.395 4.89,-2.52 7.34,-3.766 0.22,0.242 0.45,0.481 0.67,0.723 -0.44,0.844 -0.73,1.828 -1.35,2.512 -5.64,6.234 -10.34,12.996 -12.25,21.363 -0.38,1.656 -0.77,3.328 -0.94,5.012 -0.86,8.714 0.66,17.171 2.96,25.519 0.19,0.68 0.83,1.234 1.56,2.277 4.93,-3.586 9.69,-7.035 15.01,-10.902 0.17,1.559 0.39,2.52 0.36,3.477 -0.18,5.445 -0.89,10.828 -0.29,16.351 0.84,7.547 3.13,14.602 5.76,21.606 3.49,9.269 8.49,17.746 13.82,26.039 0.66,1.035 1.56,1.914 2.93,3.574 1.6,-5.906 3.27,-11.066 4.34,-16.348 1.71,-8.414 3.12,-16.886 6.19,-24.945 0.69,-1.813 1.84,-3.441 2.78,-5.156 0.33,0.054 0.66,0.113 0.99,0.168 0.58,2.035 1.44,4.035 1.71,6.109 1.1,8.637 4.9,16.191 9.68,23.184 4.94,7.234 10.51,14.043 15.85,21.011 1.47,1.93 3.08,3.766 5.34,6.508 0.72,-5.945 1.45,-10.812 1.87,-15.707 0.53,-6.242 0.53,-12.547 1.28,-18.758 0.68,-5.625 2.76,-10.91 5.85,-15.714 0.23,-0.364 0.7,-0.657 1.11,-0.793 0.41,-0.133 0.89,-0.028 1.54,-0.028 0.69,6.34 1.07,12.715 2.16,18.961 1.14,6.488 3.58,12.633 7.23,18.172 3.51,5.34 7.23,10.551 11.3,15.719 2.13,-14.59 4.08,-29.004 11.58,-41.762 2.77,0.262 2.54,2.191 2.56,3.598 0.14,13.375 6.33,24.613 12.52,35.855 0.13,0.238 0.5,0.348 1.05,0.715 6.69,-5.949 11.47,-13.559 16.86,-21.527 3.38,6.73 5.88,13.007 9.5,18.547 3.54,5.406 8.22,10.054 12.52,15.199 -9.64,7.215 -15.13,17.187 -18.83,28.379 -2.67,8.062 -3.08,16.328 -2.02,24.613 0.4,3.141 2.09,6.152 3.41,9.129 0.74,1.687 1.92,3.187 3.23,5.301 -4.21,1.754 -8.15,3.461 -12.15,5.011 -2,0.778 -3.21,-0.586 -4.28,-2.043 -4.09,-5.55 -8.19,-11.089 -12.29,-16.632 -6.34,-8.571 -12.68,-17.141 -19.03,-25.704 -0.34,-0.46 -0.72,-0.886 -1.47,-1.8 -0.96,11.746 -1.13,22.836 -0.66,33.937 0.1,2.192 0.37,4.387 0.35,6.578 -0.05,10.731 1.27,21.207 5.45,31.196 0.15,0.363 -0.09,0.882 -0.24,2.004 -1.54,-0.36 -3.02,-0.5 -4.33,-1.04 -15.03,-6.191 -27.51,-16.019 -38.85,-27.453 -0.31,-0.32 -0.71,-0.566 -1.09,-0.855 -1.95,4.308 -1.79,7.355 3.57,27.59 2.43,9.156 6.22,17.898 11.47,26.129 -2.09,1.57 -3.69,0.886 -5.49,0.211 -7.9,-2.946 -14.66,-7.723 -21.21,-12.848 -4.69,-3.672 -9.29,-7.473 -13.95,-11.18 -1.33,-1.051 -2.75,-1.976 -4.62,-3.316 -0.2,1.262 -0.5,1.972 -0.38,2.601 1.31,6.739 2.35,13.555 4.12,20.168 3.33,12.41 6.8,24.848 16.77,34.035 0.41,0.383 0.56,1.055 1.19,2.309 -16.03,0.324 -31.92,-0.754 -46.7,7.566" /><path
         id="path16"
         style="fill:#877838;fill-opacity:1;fill-rule:nonzero;stroke:none"
         d="m 894.793,601.512 c 27.875,-27.41 55.746,-54.821 83.621,-82.231 -0.195,-0.265 -0.394,-0.535 -0.59,-0.804 -8.031,4.66 -16.062,9.324 -24.101,13.98 -7.993,4.633 -15.989,9.25 -23.981,13.883 -8.121,4.707 -16.172,9.543 -24.371,14.109 -7.949,4.426 -15.504,9.606 -23.766,13.461 -0.207,-0.246 -0.414,-0.496 -0.621,-0.742 0.325,-0.625 0.539,-1.344 0.989,-1.855 7.312,-8.34 12.082,-18.258 17.343,-27.875 6.375,-11.668 12.821,-23.297 19.235,-34.946 0.258,-0.472 0.484,-0.969 0.238,-1.851 -23.062,16.851 -46.129,33.699 -69.875,51.047 0,-1.817 -0.219,-2.704 0.031,-3.426 2.797,-7.949 5.993,-15.774 8.403,-23.836 1.777,-5.953 2.582,-12.203 3.769,-18.332 0.594,-3.067 1.082,-6.156 1.617,-9.235 1.258,-7.222 2.594,-14.433 3.735,-21.675 0.82,-5.219 1.371,-10.481 1.289,-16.11 -4.68,6.117 -9.27,12.305 -14.055,18.336 -4.969,6.262 -9.953,12.528 -15.254,18.504 -5.094,5.746 -8.961,12.551 -15.156,18.727 -0.418,-2.243 -0.805,-3.27 -0.762,-4.278 0.41,-10.086 -2.39,-19.539 -5.972,-28.746 -4.653,-11.969 -10.575,-23.308 -18.579,-34.289 -1.601,6.684 -3.203,12.777 -4.507,18.93 -2.504,11.773 -5.5,23.398 -9.5,34.758 -3.235,9.183 -6.938,18.148 -11.961,26.531 -0.672,1.121 -1.028,2.301 -2.996,1.773 2.808,-18.351 -2.59,-34.918 -12.09,-50.273 -6.153,-9.942 -13.289,-19.223 -23.559,-26.66 -0.492,4.914 -1.203,9.035 -1.262,13.168 -0.156,11.32 -1.914,22.375 -4.335,33.406 -1.454,6.605 -3.403,12.98 -6.082,19.148 -0.86,1.981 -2.083,3.801 -3.141,5.7 -2.223,-0.508 -2.426,-2.106 -2.922,-3.567 -4.484,-13.226 -11.066,-25.207 -21.348,-34.867 -2.722,-2.559 -5.8,-4.738 -8.925,-7.262 -0.801,1.032 -1.661,1.657 -1.852,2.446 -1.512,6.222 -2.902,12.476 -4.32,18.722 -2.867,12.625 -5.571,25.289 -8.649,37.864 -1.551,6.328 -3.105,12.734 -6.886,19.093 -0.989,-1.039 -2.008,-1.695 -2.438,-2.629 -2.934,-6.379 -5.664,-12.847 -8.609,-19.222 -3.664,-7.926 -8.055,-15.297 -16.336,-19.352 -0.836,-0.41 -1.68,-0.84 -2.571,-1.094 -0.863,-0.25 -1.793,-0.289 -3.152,-0.488 0.434,3.91 1.586,7.211 3.387,10.254 2.277,3.844 5.508,6.793 9.238,9.227 2.598,1.695 4.531,3.668 4.047,7.285 -0.512,3.851 -1.688,5.582 -5.559,6.543 -1.519,0.375 -3.125,0.949 -4.617,0.781 -3.496,-0.398 -4.992,1.75 -6.5,4.254 -1.676,2.789 -3.668,5.316 -7.555,6.816 -0.234,-3.965 -0.445,-7.472 -0.691,-11.601 -6.117,0 -12.148,0 -18.527,0 -0.098,0.484 -0.328,1.363 -0.449,2.258 -0.872,6.339 -1.559,12.71 -2.637,19.011 -0.567,3.309 0.617,5.903 2.437,8.278 2.313,3.015 3.625,6.175 2.485,10.437 7.773,-1.215 14.781,-3.594 21.332,-7.062 5.675,-3.004 11.043,-6.579 15.035,-11.84 0.586,-0.77 1.82,-1.559 2.66,-1.465 0.637,0.074 1.387,1.453 1.633,2.371 2.019,7.535 3.91,15.105 5.898,22.648 0.223,0.848 0.797,1.606 1.16,2.313 16.082,-9.852 26.379,-23.902 32.317,-41.398 3.168,-9.336 6,-18.731 7.129,-28.567 0.105,-0.922 0.41,-1.844 0.769,-2.703 0.231,-0.547 0.735,-0.98 1.36,-1.773 2.617,2.882 3.515,6.316 4.136,9.707 1.879,10.269 1.45,20.644 0.895,31 -0.215,4.039 -0.664,8.07 -1,12.039 0.801,0.164 1.199,0.382 1.371,0.265 8.543,-5.801 17.355,-11.254 23.832,-19.582 6.313,-8.117 10.859,-17.191 14.27,-26.816 2.234,-6.309 3.89,-12.817 5.914,-19.203 0.336,-1.075 1.211,-1.973 1.839,-2.953 0.344,0.05 0.692,0.101 1.04,0.152 0.64,3.762 1.16,7.555 1.957,11.285 1.546,7.207 0.289,14.387 -0.172,21.547 -0.285,4.496 -1.352,8.949 -2.153,13.406 -1.132,6.301 -2.304,12.598 -3.531,18.879 -0.469,2.41 -1.129,4.785 -1.832,7.731 4.66,-1.09 7.805,-3.672 11.152,-5.754 3.442,-2.141 6.762,-4.504 9.977,-6.973 3.23,-2.48 6.359,-5.113 9.359,-7.863 3.129,-2.864 6.18,-5.832 9.024,-8.969 2.734,-3.016 5.344,-6.18 7.679,-9.508 2.329,-3.32 4.204,-6.957 6.368,-10.398 1.992,-3.176 2.527,-7.262 5.64,-9.817 0.434,4.66 -0.902,8.743 -2.636,12.684 -5,11.375 -11.79,21.715 -18.653,32.012 -4.937,7.41 -9.765,14.894 -14.355,22.648 12.429,-7.148 24.433,-14.871 35.66,-23.652 11.316,-8.844 22.117,-18.348 33.336,-27.723 0.074,0.566 0.488,1.488 0.226,2.133 -2.984,7.293 -7.125,13.855 -12.168,19.945 -11.086,13.383 -24.718,23.985 -37.796,35.203 -7.981,6.844 -15.95,13.7 -23.879,20.598 -1.254,1.09 -2.286,2.437 -3.129,4.113 13.367,-5.074 26.168,-11.254 39.105,-17.113 13.047,-5.91 26.082,-11.836 39.125,-17.754 0.203,0.27 0.41,0.543 0.617,0.813 -0.589,0.742 -1.066,1.625 -1.785,2.207 -12.304,9.964 -24.648,19.875 -36.957,29.828 -10.605,8.574 -21.183,17.187 -31.57,26.324 16.199,-5.883 32.402,-11.766 48.601,-17.648 0.161,0.265 0.321,0.531 0.485,0.796 -1.387,1.016 -2.672,2.215 -4.172,3.016 -10.074,5.387 -20.195,10.68 -30.293,16.016 -9.223,4.875 -18.438,9.765 -27.5,15.375 1.133,-0.067 2.301,0.023 3.395,-0.223 10.351,-2.32 20.699,-4.66 31.027,-7.07 6.539,-1.524 13.031,-3.243 19.57,-4.754 5.774,-1.332 11.641,-2.274 17.36,-3.789 13.71,-3.633 27.558,-6.813 40.8,-12.063 5.657,-2.242 11.426,-4.215 17.164,-6.25 0.508,-0.179 1.168,0.059 2.586,0.168 -1.152,1.008 -1.664,1.695 -2.347,2.008 -10.086,4.621 -20.016,9.645 -30.34,13.66 -12.332,4.797 -24.934,8.953 -37.563,12.934 -6.359,2.004 -13.047,2.98 -19.574,4.465 -5.766,1.308 -11.496,2.769 -17.281,3.988 -5.793,1.219 -11.649,2.144 -17.445,3.344 -7.34,1.515 -14.649,3.199 -21.977,4.777 -3.949,0.848 -7.918,1.629 -11.863,3.203 4.41,0 8.824,-0.164 13.218,0.031 10.184,0.457 20.364,1.035 30.54,1.668 11.242,0.696 22.464,1.797 33.718,2.184 11.301,0.391 22.629,0.215 33.942,0.094 6.422,-0.067 12.84,-0.547 19.261,-0.77 2.801,-0.098 5.606,-0.016 8.688,-0.016 -1.051,2.27 -2.723,2.672 -4.656,2.93 -5.719,0.762 -11.418,1.707 -17.133,2.516 -6.813,0.965 -13.61,2.176 -20.457,2.711 -12.031,0.941 -24.102,1.375 -36.149,2.156 -10.316,0.672 -20.613,1.59 -30.929,2.289 -5.625,0.383 -11.266,0.539 -16.981,1.07 9.903,2.493 20.086,4.008 29.508,8.379 -8.871,0.375 -17.551,-1.019 -26.266,-1.957 -8.687,-0.933 -17.39,-1.75 -26.175,-2.441 30.523,13.883 62.679,24.187 91.785,41.75 -0.684,0.156 -1.442,0.59 -2.035,0.43 -15.196,-4.165 -30.204,-8.848 -44.871,-14.7 -13.618,-5.437 -27.536,-10.105 -41.321,-15.121 -1.25,-0.453 -2.469,-0.984 -4.129,-0.789 1.477,1.262 2.957,2.52 4.43,3.785 10.937,9.399 21.902,18.766 32.801,28.203 10.117,8.758 18.926,18.75 27.172,29.247 3.285,4.175 6.312,8.546 8.246,14.671 -1.574,-0.773 -2.524,-1.031 -3.199,-1.609 -6.547,-5.613 -12.938,-11.414 -19.59,-16.902 -13.688,-11.293 -28.032,-21.645 -44.071,-29.434 -0.699,-0.336 -1.41,-0.652 -2.461,-1.137 -0.203,2.321 1.215,3.696 2.098,5.184 5.828,9.824 11.977,19.473 17.551,29.437 5.125,9.157 9.074,18.836 10.25,29.438 0.25,2.269 0.765,4.508 1.301,7.543 -2.371,-1.16 -2.993,-2.57 -3.368,-3.953 -3.32,-12.281 -10.457,-22.348 -18.793,-31.559 -7.785,-8.597 -16.105,-16.719 -24.179,-25.058 -2.012,-2.075 -3.988,-4.184 -5.981,-6.278 -0.316,0.11 -0.632,0.215 -0.949,0.324 -0.32,4.305 -0.914,8.61 -0.91,12.911 0.008,11.464 -1.367,22.82 -3.309,34.031 -1.777,10.262 -4.949,20.277 -7.492,30.406 -0.301,1.207 -0.355,2.508 -0.82,3.641 -0.473,1.16 -1.313,2.168 -1.988,3.242 -0.289,-0.109 -0.582,-0.219 -0.872,-0.332 -0.085,-0.856 -0.332,-1.727 -0.234,-2.559 0.285,-2.453 0.887,-4.875 1.031,-7.328 0.258,-4.387 0.157,-8.801 0.418,-13.187 0.442,-7.364 -1.691,-14.293 -3.722,-21.157 -4.578,-15.476 -10.946,-30.277 -18.586,-44.472 -4.379,-8.129 -9.481,-15.867 -14.254,-23.781 -0.32,-0.532 -0.649,-1.055 -1.805,-1.254 -0.113,1.152 -0.332,2.304 -0.328,3.461 0.082,17.285 0.438,34.574 0.188,51.851 -0.122,8.442 -1.77,16.774 -5.532,24.508 -0.336,0.691 -0.738,1.371 -1.218,1.965 -0.262,0.324 -0.754,0.461 -1.465,0.863 -0.68,-3.109 -1.496,-6.012 -1.93,-8.969 -1.781,-12.168 -7.113,-22.933 -13.133,-33.41 -3.574,-6.219 -7.355,-12.312 -11.43,-19.105 -0.761,2.906 -1.476,5.062 -1.882,7.277 -1.118,6.145 -1.899,12.356 -3.192,18.457 -2.461,11.649 -6.226,22.848 -12.386,33.133 -0.317,0.531 -0.774,0.976 -1.786,2.234 -0.218,-1.828 -0.636,-2.855 -0.39,-3.683 2.054,-6.871 4.511,-13.637 6.246,-20.582 0.855,-3.426 0.422,-7.168 0.598,-10.766 0.453,-9.207 -2.692,-17.523 -6.454,-25.652 -5.16,-11.16 -12.793,-20.766 -19.629,-30.871 -0.871,-1.293 -1.761,-2.575 -3.082,-4.497 -0.64,2.016 -1.214,3.551 -1.621,5.129 -2.976,11.633 -5.605,23.387 -10.281,34.493 -3.269,7.769 -7.93,14.617 -15.269,19.203 -1.622,1.011 -3.489,1.625 -5.243,2.422 -0.203,-0.258 -0.406,-0.512 -0.609,-0.77 0.438,-0.891 0.766,-1.859 1.336,-2.656 4.891,-6.821 8.582,-14.215 10.297,-22.449 0.89,-4.278 1.59,-8.661 1.707,-13.012 0.25,-9.57 0.078,-19.149 0.078,-29.168 -5.039,1.914 -8.852,5.078 -12.809,7.98 -9.226,6.766 -18.375,13.637 -27.648,20.34 -6.281,4.535 -13.352,7.574 -20.828,9.383 -3.688,0.891 -7.672,1.109 -12.039,-0.578 1.508,-0.984 2.461,-1.774 3.543,-2.289 8.418,-4.012 14.16,-10.774 18.687,-18.606 5.188,-8.98 8.785,-18.644 11.281,-28.714 0.368,-1.481 0.954,-2.907 1.7,-5.137 -1.93,0.129 -3.446,-0.02 -4.809,0.367 -6.894,1.957 -13.73,4.137 -20.629,6.086 -8.304,2.344 -16.703,4.086 -25.437,3.488 -2.266,-0.152 -4.321,-0.484 -6.235,-2.738 4.344,-1.856 8.418,-3.594 12.493,-5.332 -21.5,-4.731 -40.122,2.406 -58.684,13.652 11.644,5.035 23.137,7.535 34.574,10.278 11.621,2.781 23.309,1.921 35.934,0.75 -0.907,1.609 -1.164,2.742 -1.86,3.199 -3.906,2.562 -7.679,5.527 -11.937,7.301 -8.692,3.625 -17.863,5.39 -27.344,5.906 -8.414,0.457 -16.793,1.66 -26.441,2.664 3.55,2.551 6.105,4.523 8.793,6.289 11.132,7.328 22.851,13.547 35.382,18.152 10.418,3.828 21.145,5.723 32.247,4.676 5.507,-0.519 10.671,-2.5 15.488,-5.133 6.316,-3.453 12.437,-7.265 18.683,-10.855 2.391,-1.371 4.887,-2.555 7.59,-3.953 1.075,3.058 -0.402,5.07 -1.242,7.074 -2.269,5.426 -5.953,9.891 -10.012,14.101 -9.543,9.895 -20.879,17.489 -32.058,25.297 -5.238,3.66 -10.442,7.375 -16.504,11.66 1.691,0.262 2.379,0.481 3.055,0.454 10.187,-0.411 20.429,-0.321 30.539,-1.434 10.363,-1.145 20.632,-3.297 30.875,-5.332 12.902,-2.566 22.765,-9.961 30.558,-20.293 2.453,-3.254 4.614,-6.719 6.961,-10.051 0.969,-1.375 2.078,-2.648 3.442,-4.375 2.839,3.969 3.668,7.953 4.046,12.141 1.485,16.258 -4.742,30.031 -13.851,42.832 -7.953,11.176 -17.324,21.055 -27.906,29.785 -0.969,0.797 -1.903,1.637 -2.825,2.488 -0.214,0.196 -0.324,0.512 -0.796,1.297 1.714,0 3.199,0.223 4.593,-0.035 13.192,-2.434 26.34,-5.043 39.184,-9.039 13.422,-4.18 23.894,-12.105 31.527,-23.883 2.285,-3.527 4.699,-6.972 7.352,-10.898 1.793,2.59 2.742,4.879 2.875,7.547 0.539,11.035 -0.395,21.89 -3.946,32.418 -4.488,13.3 -9.003,26.589 -13.496,39.89 -0.832,2.461 -1.597,4.942 -2.738,8.473 2.867,-2.797 5.067,-4.727 7.02,-6.883 16.863,-18.641 32.422,-38.266 45.445,-59.832 3.609,-5.984 5.008,-12.75 7.488,-19.129 0.711,-1.828 0.578,-4.516 3.813,-5.121 0.648,3.609 1.711,7.102 1.828,10.625 0.265,8.004 0.332,16.035 -0.027,24.035 -0.227,4.977 -1.29,9.926 -2.145,14.856 -1.039,5.984 -2.09,11.976 -3.441,17.898 -1.493,6.539 -3.45,12.973 -4.985,19.504 -2.242,9.555 -4.312,19.152 -6.402,28.742 -0.582,2.664 -2.422,5.18 -0.813,8.805 2.528,-2.574 4.95,-4.863 7.164,-7.332 13.829,-15.438 26.614,-31.664 37.313,-49.469 5.816,-9.68 11.141,-19.625 14.738,-30.336 1.778,-5.289 2.567,-10.93 3.617,-16.445 1.141,-5.981 1.996,-12.012 3.149,-17.988 0.25,-1.297 1.219,-2.454 2.222,-4.375 8.926,12.371 15.329,25.218 19.555,39.191 4.227,13.957 5.07,28.434 7.121,43.102 1,-1.297 2.024,-2.579 3,-3.895 5.403,-7.297 11.149,-14.375 16.106,-21.965 7.039,-10.785 10.086,-22.801 8.941,-35.738 -0.105,-1.238 -0.621,-2.434 -0.762,-3.672 -0.308,-2.762 -0.503,-5.539 -0.738,-8.242 2.813,-1.164 3.567,0.695 4.445,2.047 6.825,10.5 14.188,20.703 20.262,31.617 9.36,16.82 17.832,34.129 26.66,51.242 0.821,1.59 1.481,3.266 2.895,4.723 0,-1.965 0.152,-3.946 -0.031,-5.895 -0.395,-4.191 -0.911,-8.375 -1.477,-12.547 -0.691,-5.101 -1.484,-10.191 -2.227,-15.285 -0.183,-1.242 -0.398,-2.48 -0.507,-3.73 -0.477,-5.457 -0.68,-10.95 -1.434,-16.368 -1.16,-8.347 -2.945,-16.609 -3.984,-24.964 -1.09,-8.735 -3.18,-17.192 -5.996,-25.473 -1.758,-5.168 -4.02,-10.168 -6.051,-15.246 -0.336,-0.84 -0.653,-1.684 -1.235,-3.184 1.493,0.125 2.497,0.028 3.383,0.309 10.391,3.32 20.676,7.019 31.176,9.969 9.285,2.601 18.785,4.461 28.223,6.507 8.383,1.825 16.773,3.657 25.222,5.11 8,1.379 16.082,2.234 24.121,3.379 4.79,0.679 9.551,1.527 14.34,2.195 2.77,0.387 5.571,0.563 8.356,0.832 0.109,-0.312 0.219,-0.621 0.332,-0.934 -5.574,-2.972 -11.164,-5.925 -16.723,-8.929 -5.765,-3.117 -11.519,-6.266 -17.258,-9.438 -5.617,-3.105 -11.238,-6.207 -16.808,-9.398 -5.559,-3.192 -11.071,-6.465 -16.574,-9.742 -5.657,-3.371 -11.356,-6.68 -16.899,-10.227 -5.234,-3.351 -11.101,-5.816 -15.367,-10.879 1.82,0 3.641,-0.035 5.461,0.004 11.133,0.234 22.316,1.238 33.383,0.496 9.113,-0.613 18.101,-3.215 27.121,-5.074 6.57,-1.352 13.105,-2.887 19.64,-4.414 5.621,-1.313 11.196,-2.82 16.828,-4.074 3.188,-0.711 6.458,-1.047 9.68,-1.629 2.11,-0.387 4.195,-0.91 6.238,-2.09 -8.722,-1.109 -17.457,-2.109 -26.16,-3.359 -8.789,-1.258 -17.508,-3.094 -26.324,-4.063 -9.09,-0.996 -23.363,-3.508 -25.769,-5.226 0.152,-0.239 0.285,-0.668 0.464,-0.692 19.836,-2.398 37.485,-10.437 54.192,-20.937 14.906,-9.371 28.457,-20.5 41.793,-31.922 4.144,-3.547 8.449,-6.918 13.445,-10.992 -1.766,0 -2.629,-0.192 -3.375,0.027 -9.125,2.699 -18.215,5.527 -27.351,8.18 -11.52,3.343 -22.993,6.914 -34.649,9.711 -8.793,2.109 -17.816,3.32 -26.781,4.625 -7.211,1.046 -14.488,1.64 -21.738,2.433 -0.157,-0.32 -0.313,-0.644 -0.465,-0.969 0.66,-0.664 1.211,-1.55 2.004,-1.957 7.23,-3.722 14.468,-7.441 21.773,-11.011 10.195,-4.985 19.391,-11.512 28.336,-18.379 10.105,-7.758 19.352,-16.469 27.57,-26.231 7.692,-9.133 14.516,-18.886 20.539,-29.191 1.809,-3.09 3.461,-6.27 5.735,-10.406 -27.246,13.109 -53.227,26.414 -79.641,38.808 -0.277,-0.426 -0.551,-0.851 -0.828,-1.273" /><path
         id="path18"
         style="fill:#ffffff;fill-opacity:1;fill-rule:nonzero;stroke:none"
         d="m 1234.87,396.887 c 0,0.023 0,0.047 0,0.066 -5.02,0 -10.06,0.184 -15.07,-0.055 -4.04,-0.195 -8.08,-0.703 -12.06,-1.414 -12.5,-2.222 -22.09,-9.089 -29.62,-19.074 -7.68,-10.176 -13.07,-21.629 -18.35,-33.137 -6.17,-13.48 -12.5,-26.898 -18.3,-40.546 -5.3,-12.469 -10.75,-24.965 -12.53,-38.594 -1.23,-9.356 1.72,-18.063 10.73,-21.078 3.94,-1.317 8.29,-1.809 12.47,-1.93 9.26,-0.27 18.54,-0.344 27.79,0.047 5.26,0.223 10.61,1.035 15.69,2.43 12.92,3.558 22.49,11.984 30.42,22.429 8.06,10.641 14,22.524 19.63,34.555 4.56,9.758 9.06,19.555 13.42,29.406 3.92,8.856 7.86,17.723 11.36,26.75 2.76,7.113 5.22,14.356 5.25,22.207 0.04,7.09 -3.11,12.164 -9.35,14.93 -3.62,1.609 -7.74,2.601 -11.7,2.883 -6.56,0.461 -13.18,0.125 -19.78,0.125 z M 1021.2,210.527 c 3.24,7.278 6.27,14.43 9.6,21.442 3.05,6.437 1.67,11.621 -1.94,15.16 -2.77,2.711 -6.3,4.008 -10.26,3.988 -6.6,-0.039 -13.2,-0.008 -19.799,-0.008 -1.551,0 -3.102,0 -4.656,0 -0.422,1.09 -0.946,1.805 -0.938,2.516 0.102,7.672 -0.289,15.41 0.559,23.008 2.175,19.539 9.434,37.504 18.384,54.828 8.96,17.34 20.01,33.184 33.41,47.441 13.51,14.375 28.55,26.77 45.48,36.852 12.42,7.391 25.53,13.141 39.57,16.75 9.44,2.426 18.91,4.297 28.71,4.379 10.04,0.082 20.08,0.515 30.12,0.527 51.24,0.059 102.48,0.074 153.72,-0.008 10.04,-0.015 20.12,-0.66 29.75,-3.683 19.88,-6.231 33.77,-18.785 39.18,-39.391 1.79,-6.82 2.07,-13.933 1.92,-21.027 -0.36,-17 -5.13,-32.899 -11.36,-48.555 -6.82,-17.141 -15.9,-32.957 -26.93,-47.652 -10.01,-13.344 -21.57,-25.25 -34.51,-35.817 -10.22,-8.339 -20.85,-16.047 -32.54,-22.191 -11.06,-5.82 -22.49,-10.609 -34.71,-13.707 -13.03,-3.301 -26.15,-4.445 -39.52,-4.422 -56.9,0.094 -113.79,0.07 -170.69,0.004 -9.13,-0.012 -18.16,0.617 -27.01,2.977 -5.4,1.441 -10.69,3.214 -15.54,6.589" /><path
         id="path20"
         style="fill:#ffffff;fill-opacity:1;fill-rule:nonzero;stroke:none"
         d="m 224.539,666.23 c 4.25,2.446 7.875,4.5 11.473,6.61 3.523,2.066 3.847,2.781 2.691,6.723 -1.269,4.328 -2.465,8.699 -4.082,12.898 -2.012,5.219 -4.383,10.305 -6.687,15.406 -0.536,1.184 -1.071,2.684 -3.395,2.317 0,-14.325 0,-28.637 0,-43.954 z m -0.07,78.84 c -1.664,-7.726 1.254,-13.601 8.472,-16.648 5.2,-2.192 8.766,-5.809 11.477,-10.563 4.059,-7.117 6.148,-14.972 8.645,-22.683 1.089,-3.371 2.265,-6.711 3.609,-10.676 5.144,2.188 9.859,4.105 14.496,6.199 2.797,1.266 2.937,1.793 1.457,4.66 -7.82,15.133 -17.566,28.821 -30.391,40.161 -5.074,4.488 -10.699,7.968 -17.765,9.55 z M 190.402,169.586 c 12.078,10.543 23.274,21.543 30.715,37.234 -5.613,-1.05 -10.215,-2.09 -14.871,-2.722 -4.613,-0.629 -9.281,-0.848 -14.558,-1.297 3.226,4.887 6.171,9.219 8.988,13.633 2.859,4.472 4.988,9.234 4.793,14.863 -0.442,-0.656 -0.879,-1.313 -1.403,-2.086 -0.371,0.266 -0.89,0.437 -1.074,0.789 -6.336,12.176 -13.711,23.895 -17.215,37.344 -1.453,5.574 -2.75,11.25 -3.324,16.961 -0.367,3.652 0.473,7.496 1.215,11.168 1.422,7.035 3.203,14 4.742,21.011 1.117,5.071 -0.328,9.129 -4.668,12.289 -6.918,5.043 -14.605,7.856 -23.097,8.063 -9.415,0.223 -18.793,-0.281 -28.211,-1.098 -9.786,-0.847 -19.692,-0.918 -29.582,0.754 -12.0161,2.031 -23.352,5.586 -34.0395,11.406 -10.4336,5.688 -19.625,13.004 -27.4375,21.829 -10.8984,12.312 -21.4453,24.949 -31.82031,37.707 -4.75,5.843 -8.25781,12.453 -9.250002,20.234 -1.367188,10.75 1.804692,19.676 10.539112,26.023 5.6601,4.114 11.8828,7.493 18.0312,10.875 23.7109,13.043 47.8633,25.329 70.2773,40.606 6.7307,4.59 13.0627,9.68 18.9377,15.383 7.976,7.75 11.43,17.336 12.402,28.097 0.988,10.93 1.672,21.899 3.055,32.778 0.976,7.683 4.441,14.605 8.949,20.894 7.074,9.867 15.828,18.121 25.203,25.754 10.836,8.824 22.418,16.555 34.446,23.652 4.019,2.372 3.605,2.438 3.273,7.083 -0.457,6.402 -0.938,12.914 -0.277,19.261 1.281,12.239 1.093,24.461 0.922,36.703 -0.149,10.836 -0.407,21.664 -0.602,32.5 -0.063,3.496 0.66,6.774 2.187,9.989 2.122,4.464 5.45,6.543 10.348,6.714 14.606,0.512 27.063,-4.75 37.246,-14.796 6.215,-6.125 11.356,-13.344 16.969,-20.079 1.066,-1.281 2.09,-2.593 3.473,-4.32 0.558,1.141 1,1.637 1.023,2.153 0.332,8.289 0.199,16.625 1.063,24.859 0.492,4.703 2.003,9.519 4.078,13.789 4.05,8.348 11.593,10.613 19.574,5.992 4.148,-2.402 7.812,-5.699 11.508,-8.816 7.906,-6.672 15.812,-13.352 23.492,-20.282 10.359,-9.347 20.109,-19.335 28.418,-30.574 4.93,-6.672 9.387,-13.707 13.832,-20.722 2.16,-3.414 4.723,-6.008 8.383,-7.911 10.664,-5.535 21.035,-11.632 31.75,-17.062 10.82,-5.481 22.465,-7.734 34.593,-6.723 3.399,0.285 6.735,1.332 10.09,2.075 3.188,0.707 6.356,1.519 9.555,2.179 1.191,0.246 2.449,0.192 4.105,0.305 -2.464,-11.024 -7.527,-20.652 -11.734,-30.606 5.594,-1.769 21.621,1.122 30.555,4.918 9.433,4.008 17.453,10.051 25.176,16.864 -3.071,-20.735 -12.332,-38.489 -24.606,-55.098 1.203,-1.793 3.207,-1.895 5.25,-2.062 7.984,-0.657 15.691,0.675 22.957,3.851 8.156,3.563 16.098,7.613 24.149,11.414 1.628,0.766 3.335,1.363 5.382,1.61 -5.89,-15.829 -10.441,-32.067 -23.07,-44.629 6.215,-2.168 11.777,-1.258 17.203,-0.149 9.692,1.981 18.653,6.133 27.688,10.016 3.851,1.66 7.742,3.23 11.808,4.926 -0.738,-4.262 -6.769,-14.497 -13.297,-22.899 -5.492,-7.07 -12.925,-11.988 -19.812,-17.738 24.262,-3.453 48.469,-2.391 72.785,-2.426 -12.156,-12.969 -26.019,-23.344 -42.07,-31.664 3.476,-2.973 7.383,-2.977 10.871,-3.469 7.695,-1.09 15.375,0.16 22.836,1.981 10.75,2.621 21.375,5.742 32.058,8.613 1.184,0.32 2.422,0.426 4.243,0.73 -0.493,-1.097 -0.657,-1.773 -1.04,-2.281 -5.398,-7.109 -10.796,-14.219 -16.253,-21.281 -4.817,-6.238 -10.063,-12.055 -16.934,-16.141 -3.461,-2.054 -7.191,-2.812 -11.246,-2.648 -8.617,0.344 -17.266,0.887 -25.863,0.519 -10.024,-0.421 -18.696,3.043 -27.172,7.622 -0.594,0.32 -1.004,0.98 -1.801,1.793 19.219,-2.196 35.707,-1.473 39.762,2.863 -0.141,0.23 -0.282,0.668 -0.426,0.668 -10.152,0.168 -19.793,2.957 -29.281,6.121 -10.086,3.363 -19.914,7.473 -28.684,13.648 -1.945,1.371 -4.332,2.555 -4.848,5.438 10.477,2.496 20.758,4.929 31.028,7.422 0.515,0.125 0.918,0.726 1.906,1.547 -7.531,1.16 -14.449,2.218 -21.363,3.285 -11.836,1.824 -23.043,5.519 -33.711,10.992 -6.778,3.476 -13.746,6.582 -21.496,10.262 8.632,1.636 16.515,3.129 24.394,4.621 -12.543,4.109 -23.32,11.078 -34.812,17.519 3.34,2.75 7.265,2.692 10.918,3.496 6.382,1.41 12.754,2.879 19.101,4.438 0.895,0.215 1.633,1.055 2.403,2.144 -27.586,-2.722 -51.204,7.813 -74.918,21.141 2.39,0.766 4.043,1.504 5.777,1.816 6.617,1.192 13.273,2.184 19.891,3.375 6.742,1.211 13.441,2.621 19.461,6.539 -6.321,1.563 -12.817,0.395 -19.157,1.297 -6.656,0.946 -13.375,1.465 -20.035,2.395 -6.492,0.91 -12.961,2.043 -19.422,3.183 -6.375,1.125 -12.73,2.375 -19.105,4.071 13.957,5.316 28.832,7.793 41.558,16.656 -4.379,0.953 -8.714,2.191 -13.14,2.805 -13.61,1.883 -25.614,7.832 -37.414,14.336 -7.657,4.222 -15.285,8.5 -22.821,12.941 -1.652,0.973 -3.238,2.52 -4.175,4.184 -9.844,17.429 -21.735,33.297 -36.473,46.855 -10.348,9.52 -21.176,18.52 -32.164,28.082 -2.043,-5.332 -1.692,-10.43 -1.832,-15.668 15.824,-6.523 22.328,-20.515 28.129,-34.863 4.656,-11.52 7.211,-23.699 8.601,-35.981 1.231,-10.89 1.328,-21.953 0.078,-32.867 -0.836,-7.281 -2.652,-14.469 -4.293,-21.636 -0.515,-2.243 -1.863,-4.301 -2.886,-6.418 -2.352,-4.872 -1.629,-7.301 3.023,-10.165 1.442,-0.886 2.836,-1.851 4.461,-2.914 -0.953,-3.242 -1.875,-6.207 -2.687,-9.203 -0.809,-2.988 -1.504,-6.008 -2.231,-8.922 -10.031,0.399 -19.73,9.332 -20.859,18.661 -0.981,8.086 0.433,15.875 2.32,23.664 3.289,13.574 6.496,27.242 4.758,41.324 -1.996,16.18 -5.359,32.094 -12.66,46.851 -1.231,2.493 -2.035,5.551 -5.36,7.438 0.36,-17.668 0.707,-34.789 1.059,-52.031 -6.383,-1.328 -12.047,0.418 -17.902,0.34 -1.844,4.847 0.117,9.843 -1.371,15.05 -1.516,-0.351 -3.024,-0.504 -4.375,-1.043 -18.559,-7.402 -35.426,-17.902 -52.129,-28.679 -17.657,-11.399 -34.621,-23.758 -50.215,-37.871 -5.207,-4.715 -9.789,-10.161 -14.403,-15.493 -4,-4.621 -5.824,-10.453 -6.668,-16.289 -1.425,-9.91 -2.304,-19.918 -3.011,-29.914 -1.125,-15.914 -7.399,-29.062 -19.367,-39.758 -10.95,-9.789 -23.122,-17.73 -35.688,-25.132 -11.4453,-6.743 -23.0234,-13.262 -34.5234,-19.914 -1.0586,-0.61 -1.9883,-1.446 -3.1523,-2.301 9.2617,-9.973 8.2343,-21.672 6.2421,-33.469 -1.2851,-7.629 -4.2461,-14.695 -8.4375,-21.16 -1.9336,-2.985 -4.4882,-5.567 -7.0117,-8.637 2.1602,-2.781 4.125,-5.586 6.3672,-8.148 11.1758,-12.77 24.6133,-22.032 41.082,-26.793 12.9766,-3.75 25.9806,-5.18 39.4216,-2.922 6.473,1.09 13.118,1.125 19.672,1.769 7.074,0.7 14.098,0.329 20.914,-1.519 12.035,-3.262 22.711,-8.883 30.223,-19.281 2.891,-4.008 4.297,-8.477 4.43,-13.555 0.218,-8.441 -2.211,-16.367 -3.856,-24.469 -0.988,-4.867 -2.496,-9.726 -1.582,-15.855 9.426,10.886 18.18,21.332 27.055,32.3 -2.238,1.7 -4.172,3.165 -5.781,4.387 0.441,15.84 0.648,31.528 1.406,47.188 0.418,8.738 0.812,17.656 2.867,26.093 3.691,15.168 9.906,29.399 21.422,40.543 9.629,9.317 20.605,16.848 32.25,23.442 2.117,1.199 3.758,1.082 5.305,-0.906 1.242,-1.602 2.675,-3.059 4.183,-4.754 -3.187,-4.453 -7.617,-7.477 -11.715,-10.75 -13.843,-11.051 -23.504,-25.059 -29.664,-41.508 -2.172,-5.809 -4.144,-11.813 -5.144,-17.902 -1.418,-8.625 -2.012,-17.403 -2.66,-26.137 -0.637,-8.598 -0.493,-17.274 -1.485,-25.824 -0.582,-5.024 -2.672,-9.883 -4.18,-14.786 -0.25,-0.812 -0.941,-2.019 -1.55,-2.101 -3.328,-0.43 -3.641,-3.031 -4.184,-5.426 -1.84,-8.078 -3.773,-16.144 -5.328,-24.281 -0.91,-4.762 -1.422,-9.637 -1.648,-14.481 -0.321,-6.871 -1.176,-13.761 -0.122,-20.644 0.395,-2.586 0.852,-5.164 1.813,-7.906 7.285,7.906 13,16.773 19.164,25.296 6.102,8.43 12.195,16.868 18.746,25.09 -8.086,-25.879 -17.781,-51.261 -19.863,-79.402 9.074,3.73 17.246,7.695 25.816,12.641 -2.914,-15.055 -6.383,-29.247 -14.023,-42.317 6.199,1.899 11.234,5.758 16.695,8.758 5.57,3.055 10.992,6.375 16.863,9.242 -2.238,-9.961 -6.941,-18.707 -11.937,-27.265 -5.043,-8.649 -10.473,-17.071 -15.953,-25.946 1.636,-3.179 3.41,-6.621 5.316,-10.32 -6.48,-1.832 -12.847,-3.352 -19.422,-3.18 -13.011,0.344 -26.015,0.93 -39.019,1.449 -0.535,0.024 -1.059,0.399 -2.512,0.981 10.309,6.59 19.957,12.758 30.465,19.473 -5.649,1.445 -10.195,-0.235 -14.734,-0.047 -4.844,0.195 -9.711,-0.325 -14.571,-0.375 -4.668,-0.051 -9.34,0.101 -14.215,0.703 9.106,8.117 19.176,14.765 28.328,22.746 -10.199,-1.399 -19.765,-5.059 -29.828,-6.668" /><path
         id="path22"
         style="fill:#ffffff;fill-opacity:1;fill-rule:nonzero;stroke:none"
         d="m 757.605,436.676 c -0.574,-2.446 -0.738,-4.281 -1.429,-5.899 -3.821,-8.91 -8.016,-17.675 -11.586,-26.683 -2.129,-5.371 -5.551,-7.219 -11.16,-7.203 -51.391,0.129 -102.778,0.043 -154.164,0.117 -6.328,0.012 -12.504,-0.637 -18.551,-2.442 -13.211,-3.945 -23.082,-12.222 -30.629,-23.566 -6.879,-10.336 -12.09,-21.531 -17.106,-32.828 -5.074,-11.418 -10.035,-22.891 -15.046,-34.336 -4.582,-10.461 -8.848,-21.059 -11.567,-32.16 -1.328,-5.418 -2.582,-10.906 -0.672,-16.692 2.239,-6.785 6.606,-11.043 13.395,-12.398 5.031,-1.008 10.246,-1.504 15.383,-1.516 49.816,-0.101 99.632,-0.05 149.449,-0.066 1.98,0 3.965,-0.25 6.535,-0.426 -0.367,-2.133 -0.336,-3.879 -0.969,-5.336 -4.023,-9.289 -8.32,-18.465 -12.269,-27.785 -1.895,-4.473 -4.817,-6.652 -9.723,-6.484 -5.023,0.175 -10.055,0.019 -15.086,0.019 -69.773,0 -139.547,-0.004 -209.32,0.012 -6.285,0 -12.606,-0.289 -18.852,0.254 -18.359,1.609 -34.929,7.418 -46.89,22.371 -4.801,5.996 -8.375,12.816 -9.7,20.539 -1.027,6 -2.382,12.023 -2.585,18.07 -0.211,6.231 0.367,12.571 1.394,18.731 1.078,6.441 2.836,12.816 4.777,19.066 4.844,15.602 12.086,30.133 20.508,44.086 11.168,18.508 24.844,34.965 40.91,49.402 18.352,16.489 39.043,29.165 62.504,36.95 6.782,2.246 13.953,3.351 20.985,4.8 11.289,2.325 22.754,2.165 34.199,2.161 72.918,-0.004 145.832,0 218.75,-0.036 2.59,-0.003 5.183,-0.429 8.515,-0.722" /><path
         id="path24"
         style="fill:#ffffff;fill-opacity:1;fill-rule:nonzero;stroke:none"
         d="m 924.766,436.68 c -0.75,-2.742 -1.039,-4.731 -1.817,-6.504 -6.406,-14.598 -12.922,-29.149 -19.375,-43.727 -8.402,-18.98 -16.761,-37.98 -25.172,-56.957 -5.683,-12.828 -11.429,-25.625 -17.132,-38.441 -3.879,-8.723 -6.95,-17.68 -9.086,-27.028 -2.258,-9.863 2.41,-19.195 14.171,-21.425 5.504,-1.047 11.2,-1.493 16.809,-1.504 44.164,-0.117 88.328,-0.063 132.496,-0.067 7.82,0 8.14,-0.355 5.05,-7.527 -3.96,-9.195 -8.17,-18.281 -12.19,-27.449 -1.51,-3.438 -4.04,-5.039 -7.72,-5.02 -1.573,0.012 -3.144,-0.035 -4.714,-0.035 -70.41,-0.004 -140.82,0.024 -211.231,-0.039 -9.14,-0.008 -18.183,0.598 -27,3.055 -18.886,5.273 -33.167,15.949 -39.64,35.152 -3.442,10.215 -4.235,20.754 -3.059,31.531 1.887,17.336 8.016,33.289 15.074,49.008 8.071,17.965 16.051,35.973 24.047,53.973 8.606,19.383 17.188,38.769 25.754,58.168 1.297,2.929 3.137,5.004 6.61,5.121 1.867,0.062 3.73,0.445 5.593,0.445 41.493,0.031 82.985,0.039 124.477,0 2.305,0 4.609,-0.406 8.055,-0.73" /><path
         id="path26"
         style="fill:#877838;fill-opacity:1;fill-rule:nonzero;stroke:none"
         d="m 1305.11,11.6211 c -4.67,0 -8.6,-0.1758 -12.51,0.0391 -6.2,0.3398 -12.1,-1.3477 -18.07,-2.42582 -10.74,-1.94141 -21.48,-3.92969 -32.12,-6.32422 -18.3,-4.11719 -36.84,-2.72266 -55.3,-2.523441 -5.56,0.0625 -11.14,1.484371 -16.65,2.566411 -6.27,1.22656 -12.6,2.3789 -18.68,4.25781 -19.63,6.05466 -37.37,15.41016 -50.87,31.35936 -7,8.2695 -11.13,17.832 -12.54,28.8008 -0.86,6.6875 -0.47,13.2422 0.65,19.5977 1.57,8.957 5.48,17.2542 11.05,24.5942 12.68,16.707 29.18,28.074 48.91,34.968 10.81,3.774 21.87,6.051 33.25,7.473 14.43,1.809 28.9,1.676 43.24,0.726 20.82,-1.375 40.55,-7.343 58.28,-18.855 1.15,-0.746 2.37,-1.391 3.66,-2.137 3.58,3.289 5.18,7.403 6.66,11.465 1.81,4.992 2.2,5.356 8.5,3.844 0.19,-15.918 0.05,-32.02 0.13,-48.481 -2.39,0 -4.49,0 -6.83,0 -0.39,0.664 -1.05,1.414 -1.28,2.278 -4.49,17.304 -16.05,28.676 -31.27,36.754 -8.43,4.472 -17.41,7.457 -26.9,9.199 -12.9,2.371 -25.68,3.066 -38.76,1.652 -12.91,-1.398 -25,-4.949 -36.67,-10.422 -14.13,-6.625 -24.45,-16.859 -29.49,-31.754 -1.83,-5.41 -3.49,-10.9839 -3.59,-16.8824 -0.09,-5 -1.19,-10.0156 -0.99,-14.9883 0.53,-12.5312 2.28,-24.8203 8.06,-36.2851 5.84,-11.6094 15.1,-19.4024 26.46,-25.0703 11.16,-5.56643 22.88,-9.1719 35.37,-10.05081 5.62,-0.39453 11.27,-1.30078 16.86,-1.05468 7,0.30468 13.95,1.63281 20.94,2.375 6.93,0.73828 13.33,3.16406 19.63,5.94529 7.93,3.5039 14.07,8.7188 16.32,17.5469 0.23,0.9062 0.83,1.7812 0.84,2.6719 0.03,6.539 1.08,13.125 -1.49,19.5195 -1.44,3.5938 -3.61,6.3789 -7.26,7.4453 -3.57,1.0469 -7.3,1.7969 -11,2.0508 -4.99,0.3398 -10.02,0.0859 -15.4,0.0859 -0.16,1.5391 -0.3,2.8438 -0.44,4.1368 0.64,0.3515 1.02,0.7109 1.43,0.75 1.24,0.1289 2.5,0.1835 3.75,0.1835 30.17,0.0079 60.34,0.004 90.5,0.004 2.01,0 4.02,0 6.29,0 0,-1.8594 0,-3.1836 0,-4.5157 -0.61,-0.2109 -1.04,-0.4726 -1.48,-0.4843 -2.98,-0.0586 -6.01,0.246 -8.94,-0.1641 -4.31,-0.6016 -8.64,-1.3711 -12.78,-2.6719 -4.92,-1.5469 -7.31,-5.4336 -8.25,-10.4726 -1.87,-10.1329 -0.96,-20.3555 -1.22,-30.5391 -0.04,-1.8516 0,-3.7031 0,-6.1875" /><path
         id="path28"
         style="fill:#877838;fill-opacity:1;fill-rule:nonzero;stroke:none"
         d="m 563.813,56.1641 c -2.047,0 -3.887,0 -6.059,0 -0.469,2.9062 -1.016,5.9336 -1.43,8.9843 -1,7.3946 -6.676,12.4375 -14.054,13.5704 -13.918,2.1367 -27.891,1.1601 -41.844,1.371 -5.149,0.0782 -5.793,-0.5937 -5.817,-5.621 -0.062,-12.5743 -0.308,-25.1563 0.082,-37.7149 0.204,-6.5312 1.27,-13.0859 2.551,-19.5117 1.156,-5.8008 5.817,-8.03907 11.199,-9.1797 6.036,-1.28125 12.11,-1.57422 18.247,-1.51172 10.058,0.09766 20.117,0.01563 30.175,0.03906 8.825,0.01563 17.528,1.22266 25.832,4.11716 17.625,6.1407 29.418,18.4766 36.465,35.5743 0.176,0.4218 0.418,0.8203 0.762,1.4921 2.18,0 4.433,0 6.836,0 1.5,-7.8711 -1.465,-15.1328 -1.61,-22.6132 -0.144,-7.2891 -1.726,-14.5469 -2.726,-22.21489 -65.746,0 -131.34,0 -197.188,0 0,1.19532 0,2.19141 0,3.66407 4.93,0 9.657,-0.35938 14.297,0.10937 4.309,0.43359 8.727,1.25 12.742,2.80859 5.407,2.09376 8.067,6.57426 8.395,12.48436 1.824,32.9649 0.465,65.9571 0.805,98.9333 0.05,4.84 -0.446,9.703 -0.973,14.528 -0.711,6.515 -4.809,10.757 -11.484,11.812 -4.317,0.68 -8.703,0.918 -13.067,1.274 -1.535,0.125 -3.09,0.019 -4.535,0.019 -0.809,3.68 -0.73,3.887 1.762,4.172 1.086,0.121 2.195,0.059 3.297,0.059 52.175,-0.004 104.351,-0.012 156.527,-0.024 1.258,0 2.52,0.047 3.77,-0.023 3.324,-0.188 3.988,-0.93 4.468,-4.196 1.328,-8.957 2.778,-17.894 4.082,-26.855 0.246,-1.684 0.035,-3.43 0.035,-5.125 -5.492,-1.797 -6.589,-1.313 -8.503,3.695 -4.473,11.703 -11.973,20.477 -24.067,24.754 -7.023,2.488 -14.418,3.18 -21.726,3.34 -17.121,0.375 -34.258,0.188 -51.387,0.176 -4.59,0 -5.082,-0.481 -5.094,-5.215 -0.043,-17.914 -0.051,-35.832 0.008,-53.7462 0.016,-5.1718 0.648,-5.7578 5.68,-5.7304 10.211,0.0547 20.441,-0.1289 30.629,0.4219 5.238,0.2812 10.574,0.3984 15.726,2.2226 5.762,2.0352 9.356,5.3711 9.813,11.7266 0.187,2.6175 0.929,5.1915 1.453,7.9685 1.066,0.149 1.968,0.36 2.875,0.371 0.906,0.012 1.816,-0.175 3.051,-0.312 0,-16.7385 0,-33.301 0,-50.0939" /><path
         id="path30"
         style="fill:#877838;fill-opacity:1;fill-rule:nonzero;stroke:none"
         d="m 694.234,6.84766 c 1.364,-0.08985 2.723,-0.25782 4.086,-0.25782 30.02,0.01172 60.043,-0.15625 90.059,0.19141 7.769,0.09375 15.711,1.07813 23.23,2.99609 8.496,2.16406 15.383,7.68746 21.024,14.41016 3.316,3.9531 6.332,8.1875 9.207,12.4766 2.902,4.3359 2.754,4.4375 8.875,3.5273 -0.055,-6.1797 -2.207,-12.043 -3.313,-18.0547 -1.129,-6.1484 -2.453,-12.25779 -3.8,-18.92576 -1.512,-0.15625 -3.161,-0.45703 -4.813,-0.46875 -8.012,-0.05078 -16.023,-0.01953 -24.035,-0.01953 -46.836,0 -93.672,-0.00391 -140.508,-0.01172 -6.91,0 -13.816,-0.04297 -20.726,-0.03906 -0.899,0 -1.793,0.17187 -2.555,0.25 -0.824,1.91796 0.066,2.83984 1.195,3.875 12.25,11.23832 24.473,22.51172 36.676,33.80472 8.742,8.0898 17.418,16.2539 26.176,24.332 17.058,15.7305 34.148,31.4297 51.234,47.1324 11.082,10.188 22.192,20.352 33.266,30.547 1.586,1.461 3.043,3.063 5.433,5.481 -2.683,0.215 -4.289,0.449 -5.894,0.453 -15.086,0.031 -30.176,0.031 -45.266,0.023 -14.773,-0.011 -29.551,-0.203 -44.32,-0.015 -16.34,0.203 -27.832,-8.071 -37.098,-20.485 -1.207,-1.617 -2.219,-3.398 -3.16,-5.191 -2.324,-4.422 -2.602,-4.578 -8.633,-3.461 2.461,10.914 4.918,21.812 7.332,32.516 3.946,1.031 170.52,1.3 176.676,0.375 1.508,-2.571 0.055,-4.305 -1.758,-5.973 -6.469,-5.949 -12.926,-11.91 -19.379,-17.871 -18.547,-17.141 -37.101,-34.2697 -55.632,-51.422 -10.7,-9.9102 -21.321,-19.9063 -32.047,-29.7891 -13.129,-12.1016 -26.34,-24.1172 -39.485,-36.2031 -0.98,-0.9024 -1.726,-2.05861 -2.582,-3.09767 0.18,-0.36719 0.356,-0.73829 0.535,-1.10547" /><path
         id="path32"
         style="fill:#877838;fill-opacity:1;fill-rule:nonzero;stroke:none"
         d="m 1064.74,152.512 c 0.68,-12.485 1.33,-24.324 1.99,-36.485 -2.78,0 -5.04,0 -7.39,0 -2.64,12.403 -10.01,20.93 -20.4,27.11 -4.21,2.504 -8.76,3.789 -13.7,4.293 -23.68,2.418 -47.404,0.539 -71.099,1.086 -0.758,0.015 -1.52,-0.246 -2.207,-0.364 -1.325,-3.882 -1.434,-59.4645 -0.121,-64.0622 0.996,-0.1171 2.07,-0.3437 3.144,-0.3476 10.215,-0.0039 20.43,-0.0195 30.645,0.0781 5.211,0.0508 10.281,1.1797 15.068,3.1719 6.41,2.6641 8.49,8.3984 9.6,14.6248 0.25,1.371 0.17,2.797 0.26,4.547 2.39,0 4.66,0 6.95,0 0.96,-3.23 1.27,-45.0156 0.3,-51.4296 -2.17,0 -4.42,0 -6.69,0 -0.81,3.7148 -1.36,7.5469 -2.5,11.1992 -2.47,7.918 -8.02,12.0508 -16.875,12.5937 -11.262,0.6915 -22.567,0.7227 -33.852,1.0235 -1.097,0.0273 -2.199,0 -3.297,-0.0352 -2.222,-0.0625 -3.554,-1.0586 -3.574,-3.4297 -0.008,-0.7851 -0.066,-1.5703 -0.062,-2.3554 0.043,-15.3985 -0.012,-30.8008 0.218,-46.1992 0.059,-3.7071 0.524,-7.6016 1.778,-11.0547 1.703,-4.6953 5.746,-7.14066 10.578,-8.45707 6.641,-1.80469 13.387,-1.38281 20.125,-1.44922 1.719,-0.01562 3.437,-0.0039 5.41,-0.0039 0.152,-1.21875 0.277,-2.21875 0.477,-3.77344 -1.95,-0.09766 -3.606,-0.25781 -5.262,-0.25781 -32.84,-0.00391 -65.684,0.00781 -98.524,0.03125 -1.25,0 -2.523,0.00781 -3.742,0.24609 -1.883,0.36719 -2.039,1.64063 -1.191,3.75391 4.195,0 8.558,0.0664 12.918,-0.01953 5.098,-0.09766 10.004,0.80859 14.648,2.83984 4.227,1.84768 7.278,4.82028 7.797,9.71878 0.41,3.8867 1.11,7.7773 1.121,11.664 0.09,31.7461 0.094,63.4922 -0.011,95.2345 -0.012,4.039 -0.461,8.148 -1.317,12.094 -1.09,5.039 -4.613,8.312 -9.644,9.101 -5.391,0.852 -10.903,0.989 -16.368,1.356 -2.035,0.136 -4.105,-0.129 -6.117,0.133 -0.836,0.109 -2.047,0.996 -2.23,1.734 -0.375,1.551 0.883,2.172 2.285,2.277 1.094,0.082 2.195,0.098 3.293,0.098 57.359,0.004 114.718,0.008 172.078,-0.004 1.7,0 3.39,-0.168 5.49,-0.281" /><path
         id="path34"
         style="fill:#877838;fill-opacity:1;fill-rule:nonzero;stroke:none"
         d="m 1459.5,426.621 c -0.36,4.02 -0.86,8.031 -1.05,12.059 -0.52,10.492 -0.77,21.004 -1.43,31.488 -0.24,3.863 -1.35,7.668 -2.02,11.504 -0.76,4.305 -1.88,8.594 -2.13,12.93 -0.41,6.886 -0.47,13.816 -0.26,20.714 0.34,11.008 4.72,20.914 9.08,30.774 0.24,0.543 0.81,0.933 1.62,1.824 2.73,-2.019 5.68,-3.785 8.02,-6.16 0.85,-0.863 0.52,-3.242 0.2,-4.828 -0.63,-3.188 -1.76,-6.274 -2.42,-9.457 -0.86,-4.114 -2.2,-8.317 -1.99,-12.41 0.29,-5.696 0.67,-11.543 2.92,-16.969 0.29,-0.707 0.79,-1.332 1.18,-1.996 0.39,0.094 0.78,0.183 1.17,0.277 1.11,3.168 2.32,6.305 3.31,9.512 2.39,7.754 4.62,15.555 7.01,23.308 3.51,11.375 10.44,19.801 21.48,24.618 2.97,1.293 5.96,2.543 9.77,4.168 -1.44,-10.282 -5.27,-19.414 -4.23,-29.485 3.12,0.621 4.23,2.891 5.73,4.531 4.47,4.891 9.35,9.2 15.13,12.54 7.41,4.277 15.51,5.652 23.82,6.32 3.26,0.262 6.54,0.312 10.28,0.48 2.12,-5.093 4.39,-10.523 6.93,-16.601 -3.03,-1.172 -5.74,-2.176 -8.41,-3.278 -2.55,-1.05 -5.06,-2.203 -7.32,-3.191 0,-4.285 0,-7.996 0,-12.164 2.23,-0.32 4.63,-0.664 7.15,-1.02 0.49,-5.754 0.97,-11.296 1.49,-17.242 -12.56,-2.332 -23.96,3.055 -36.24,5.117 -0.19,-1.75 -0.56,-3.105 -0.44,-4.414 1,-11.144 -2.31,-21.289 -6.95,-31.183 -5.13,-10.981 -11.83,-20.981 -18.94,-30.735 -0.81,-1.121 -1.87,-2.058 -3.49,-3.8 -0.54,4.043 -1.22,7.316 -1.36,10.613 -0.24,5.648 0.15,11.332 -0.23,16.965 -0.67,10 -1.71,19.972 -2.59,29.957 -0.21,2.426 -0.36,4.859 -1.06,7.359 -2.74,-13.23 -7.52,-25.629 -13.18,-37.734 -5.62,-12.028 -11.79,-23.727 -19.11,-34.782 -0.48,0.129 -0.96,0.258 -1.44,0.391" /><path
         id="path36"
         style="fill:#ffffff;fill-opacity:1;fill-rule:nonzero;stroke:none"
         d="m 718.91,349.828 c -0.547,-2.676 -0.601,-4.41 -1.254,-5.883 -4.351,-9.855 -8.898,-19.625 -13.234,-29.492 -1.52,-3.461 -3.91,-5.039 -7.649,-4.988 -5.812,0.082 -11.628,0.019 -17.445,0.019 -48.406,0 -96.816,0.004 -145.226,0.008 -1.414,0 -2.832,-0.054 -4.243,0.031 -3.711,0.219 -4.507,1.387 -3.129,4.79 1.766,4.347 3.614,8.664 5.508,12.957 2.59,5.863 5.328,11.664 7.86,17.554 1.48,3.446 3.89,5.141 7.644,5.02 2.199,-0.071 4.403,-0.012 6.602,-0.012 52.34,-0.004 104.676,-0.004 157.015,-0.004 2.168,0 4.336,0 7.551,0" /><path
         id="path38"
         style="fill:#877838;fill-opacity:1;fill-rule:nonzero;stroke:none"
         d="m 1520.04,305.563 c -3.14,-4.567 -5.93,-8.633 -9.19,-13.372 -0.93,1.942 -1.85,3.454 -2.41,5.09 -2.43,6.985 -3.33,14.274 -4.14,21.571 -0.67,6.058 -1.15,12.144 -2.03,18.171 -1.01,6.938 -2.3,13.84 -3.59,20.739 -3.08,16.527 -8.67,31.968 -20.09,44.734 -2.71,3.02 -5.68,5.82 -8.73,8.496 -1.49,1.305 -1.71,2.602 -0.91,4.11 2.47,4.671 5.05,9.289 7.68,14.105 4.84,-1.848 8.92,-4.387 12.57,-7.586 8.42,-7.371 14.3,-16.547 18.65,-26.766 3.79,-8.914 6.4,-18.167 8.89,-27.539 2.85,-10.683 2.73,-21.359 2.68,-32.144 -0.05,-8.012 -0.2,-16.02 -0.17,-24.031 0.01,-1.993 0.55,-3.985 0.79,-5.578" /><path
         id="path40"
         style="fill:#ffffff;fill-opacity:1;fill-rule:nonzero;stroke:none"
         d="m 175.996,493.598 c 0.457,6.754 0.848,12.48 1.242,18.324 2.242,0.281 3.899,0.488 6.059,0.758 0,2.746 0.008,5.367 -0.004,7.988 -0.008,2.039 -1.551,2.5 -3.086,2.977 -3.828,1.187 -7.652,2.39 -11.934,3.73 1.934,6.055 3.77,11.801 5.661,17.727 29.875,-9.579 59.445,-19.059 89.011,-28.539 -0.027,-0.375 -0.054,-0.747 -0.082,-1.122 -3.668,-0.996 -7.308,-2.117 -11.011,-2.972 -10.641,-2.461 -21.375,-4.543 -31.93,-7.328 -5.086,-1.34 -9.91,-3.77 -14.731,-5.977 -6.894,-3.16 -13.992,-5.5 -21.593,-5.953 -2.274,-0.137 -4.575,0.219 -7.602,0.387" /><path
         id="path42"
         style="fill:#ffffff;fill-opacity:1;fill-rule:nonzero;stroke:none"
         d="m 1400.78,206.691 c 10.95,-0.492 20,8.891 20.01,19.77 0.02,10.539 -7.14,19.953 -19.52,20.473 -9.24,0.386 -20.1,-7.422 -20.07,-20.426 0.03,-11.352 9.78,-20.27 19.58,-19.817 z M 1400.41,199 c -15.18,0.277 -27.38,12.23 -27.15,28.168 0.22,14.91 11.79,27.645 28.07,27.27 16.8,-0.387 27.52,-12.524 27.36,-27.93 -0.18,-16.953 -13.11,-27.606 -28.28,-27.508" /><path
         id="path44"
         style="fill:#877838;fill-opacity:1;fill-rule:nonzero;stroke:none"
         d="m 1225.4,45.0117 c -0.99,-0.8828 -1.87,-1.6797 -2.92,-2.6133 3.84,-5.8203 7.05,-11.7812 11.8,-17.7031 3.56,5.7813 6.68,10.6133 9.54,15.586 1.24,2.1601 0.58,3.0625 -2.8,4.8984 1.77,0 3.32,0 4.87,0 1.57,0 3.14,0 5.27,0 -4.74,-2.5781 -6.46,-7.0274 -8.92,-10.8594 -3.38,-5.2695 -6.49,-10.7148 -9.78,-16.043 -0.56,-0.8906 -1.44,-1.5742 -2.4,-2.5976 -0.67,0.6328 -1.31,1.0508 -1.71,1.6328 -4.92,7.2539 -9.76,14.5742 -14.76,21.7813 -1.48,2.1328 -3.37,3.9804 -5.04,5.9179 5.36,0 11.08,0 16.85,0" /><path
         id="path46"
         style="fill:#877838;fill-opacity:1;fill-rule:nonzero;stroke:none"
         d="m 1183.13,36.2031 c 7.19,1.0391 12.54,-1.9804 14.29,-8.5898 -5.58,-0.1836 -11.04,-0.3711 -16.47,-0.5508 0.14,-8.8281 5.89,-10.9648 15.68,-6.457 -2.93,-3.6758 -10.43,-5.9063 -15.21,-4.4883 -1.34,0.3984 -2.71,0.7734 -3.98,1.3516 -3.98,1.8085 -6.22,3.9648 -5.88,9.0234 0.27,4.1992 2.19,7.0156 6.27,8.3594 1.78,0.5859 3.63,0.9804 5.43,1.457 -1.93,-2.1211 -3.38,-4.4063 -2.74,-8.1367 1.94,0 3.93,-0.168 5.87,0.0625 1.23,0.1484 3.22,0.6914 3.4,1.414 0.31,1.293 -0.25,2.9766 -0.89,4.2774 -1.16,2.3672 -3.78,1.6367 -5.77,2.2773" /><path
         id="path48"
         style="fill:#877838;fill-opacity:1;fill-rule:nonzero;stroke:none"
         d="m 1246.47,15.7617 c -2.46,-0.0781 -4.95,1.625 -4.93,3.3672 0.02,1.8555 1.78,3.1524 4.41,3.25 3.06,0.1094 4.71,-0.9922 4.8,-3.2109 0.06,-1.8164 -1.85,-3.3321 -4.28,-3.4063" /><path
         id="path50"
         style="fill:#877838;fill-opacity:1;fill-rule:nonzero;stroke:none"
         d="m 1206.62,15.8672 c -2.7,-0.0234 -4.74,1.4258 -4.83,3.1875 -0.1,1.8711 1.61,3.2187 4.23,3.332 0.46,0.0196 0.93,0.0078 1.4,-0.0195 1.95,-0.1016 3.3,-1.0703 3.54,-3.0274 0.25,-1.9843 -1.42,-2.5742 -2.85,-3.1835 -0.55,-0.2344 -1.21,-0.2383 -1.49,-0.2891" /><path
         id="path52"
         style="fill:#ffffff;fill-opacity:1;fill-rule:nonzero;stroke:none"
         d="m 1396.89,229.375 c 1.57,-0.172 2.63,-0.324 3.69,-0.387 0.78,-0.043 1.56,-0.023 2.33,0.086 1.94,0.274 3.68,0.864 3.95,3.207 0.22,1.922 -1.12,3.867 -3.47,4.266 -2.04,0.344 -4.19,0.07 -6.5,0.07 0,-2.539 0,-4.652 0,-7.242 z m -0.09,-5.859 c 0,-3.672 0,-7.344 0,-11.336 -2.26,0 -4,0 -6.08,0 0,9.672 0,18.976 0,28.851 5.6,0.387 11.06,0.664 16.43,-0.183 3.32,-0.528 5.39,-2.918 5.83,-6.485 0.43,-3.465 0.05,-6.562 -3.14,-8.683 -1.01,-0.672 -2.02,-1.348 -3.39,-2.254 2.09,-3.684 4.05,-7.129 6.02,-10.606 -4.97,-1.785 -6.04,-1.472 -8.23,2.278 -1.34,2.293 -2.56,4.656 -4.02,6.867 -0.56,0.859 -1.62,1.39 -2.46,2.07 -0.32,-0.172 -0.64,-0.347 -0.96,-0.519" /></g></g></svg>