<?xml version="1.0" encoding="utf-8"?>
<!-- Generator: Adobe Illustrator 16.0.4, SVG Export Plug-In . SVG Version: 6.00 Build 0)  -->
<!DOCTYPE svg PUBLIC "-//W3C//DTD SVG 1.1//EN" "http://www.w3.org/Graphics/SVG/1.1/DTD/svg11.dtd">
<svg version="1.1" id="Ebene_1" xmlns="http://www.w3.org/2000/svg" xmlns:xlink="http://www.w3.org/1999/xlink" x="0px" y="0px"
	 width="238px" height="84px" viewBox="0 0 238 84" enable-background="new 0 0 238 84" xml:space="preserve">
<g>
	<g>
		<path fill="#009DE2" d="M13.6,0C13.6,0,0,0,0,13.6v56.1c0,0,0,13.6,13.6,13.6h210.798c0,0,13.602,0,13.602-13.6V13.6
			c0,0,0-13.6-13.602-13.6H13.6z"/>
		<path fill="#FFFFFF" d="M52.867,30.732c0-11.476-9.301-20.774-20.776-20.778C20.611,9.958,11.32,19.257,11.313,30.732
			c0.006,11.479,9.298,20.773,20.777,20.781C43.565,51.506,52.867,42.211,52.867,30.732 M43.279,30.732
			c-0.008,6.179-5.01,11.178-11.188,11.186c-6.177-0.008-11.175-5.007-11.186-11.186c0.011-6.18,5.009-11.174,11.186-11.182
			C38.269,19.558,43.271,24.553,43.279,30.732"/>
		<path fill="#FFFFFF" d="M80.139,39.312h-5.084l-2.151-8.56c-0.296-1.21-0.511-2.633-0.672-4.144h-0.026
			c-0.137,1.399-0.349,2.719-0.674,4.011l-2.178,8.693h-4.792L60.07,21.148h4.44l2.123,8.851c0.27,1.157,0.486,2.502,0.593,3.795
			h0.029c0.186-1.265,0.372-2.477,0.697-3.686l2.365-8.96h4.331l2.37,8.796c0.267,1.023,0.539,2.371,0.728,3.742h0.025
			c0.188-1.401,0.401-2.663,0.672-3.822l2.045-8.716h4.197L80.139,39.312z"/>
	</g>
	<polygon fill="#FFFFFF" points="86.784,39.312 86.784,21.148 97.007,21.148 97.007,24.671 90.978,24.671 90.978,28.277 
		96.685,28.277 96.685,31.691 90.978,31.691 90.978,35.701 97.007,35.701 97.007,39.312 	"/>
	<rect x="99.886" y="21.148" fill="#FFFFFF" width="4.198" height="18.164"/>
	<g>
		<path fill="#FFFFFF" d="M110.862,39.631c-1.263,0-2.557-0.136-3.714-0.406l0.215-3.875c1.022,0.378,2.503,0.673,3.819,0.673
			c1.537,0,2.639-0.642,2.639-1.934c0-3.094-7.24-1.509-7.24-7.585c0-3.42,2.666-5.68,7.212-5.68c0.97,0,2.18,0.106,3.306,0.323
			l-0.241,3.633c-1.021-0.298-2.152-0.483-3.227-0.483c-1.751,0-2.553,0.751-2.553,1.776c0,2.824,7.233,1.745,7.233,7.425
			C118.313,37.019,115.486,39.631,110.862,39.631"/>
		<path fill="#FFFFFF" d="M124.365,39.631c-1.265,0-2.558-0.136-3.711-0.406l0.212-3.875c1.025,0.378,2.503,0.673,3.824,0.673
			c1.529,0,2.632-0.642,2.632-1.934c0-3.094-7.231-1.509-7.231-7.585c0-3.42,2.661-5.68,7.208-5.68c0.967,0,2.18,0.106,3.308,0.323
			l-0.24,3.633c-1.025-0.298-2.154-0.483-3.227-0.483c-1.754,0-2.557,0.751-2.557,1.776c0,2.824,7.232,1.745,7.232,7.425
			C131.815,37.019,128.993,39.631,124.365,39.631"/>
	</g>
	<polygon fill="#FFFFFF" points="134.317,39.312 134.317,21.148 144.542,21.148 144.542,24.671 138.517,24.671 138.517,28.277 
		144.221,28.277 144.221,31.691 138.517,31.691 138.517,35.701 144.542,35.701 144.542,39.312 	"/>
	<g>
		<path fill="#FFFFFF" d="M152.775,24.458c-0.433,0-0.918,0.025-1.16,0.053v4.656c0.217,0.023,0.648,0.052,1.048,0.052
			c1.777,0,2.911-0.942,2.911-2.474C155.574,25.319,154.735,24.458,152.775,24.458 M156.082,39.31l-4.3-7.106h-0.167v7.106h-4.196
			V21.148c1.533-0.108,3.498-0.134,5.676-0.134c4.278,0,6.862,1.532,6.862,5.379c0,2.45-1.59,4.441-4.008,5.03
			c0.484,0.703,0.965,1.375,1.397,2.046l3.844,5.841H156.082z"/>
		<path fill="#FFFFFF" d="M174.106,24.458c-0.431,0-0.915,0.025-1.152,0.053v4.656c0.212,0.023,0.642,0.052,1.046,0.052
			c1.777,0,2.905-0.942,2.905-2.474C176.905,25.319,176.072,24.458,174.106,24.458 M177.421,39.31l-4.311-7.106h-0.156v7.106h-4.198
			V21.148c1.53-0.108,3.495-0.134,5.672-0.134c4.279,0,6.862,1.532,6.862,5.379c0,2.45-1.586,4.441-4.007,5.03
			c0.484,0.703,0.968,1.375,1.396,2.046l3.846,5.841H177.421z"/>
	</g>
	<rect x="184.224" y="21.148" fill="#FFFFFF" width="4.194" height="18.164"/>
	<g>
		<path fill="#FFFFFF" d="M201.709,39.312l-4.279-7.831c-0.78-1.399-1.396-2.798-1.88-3.984c0.079,1.345,0.136,3.177,0.136,4.899
			v6.916h-4.04V21.148h5.382l3.978,7.184c0.809,1.506,1.562,3.064,2.21,4.467c-0.136-1.563-0.189-3.958-0.189-5.677v-5.974h4.036
			v18.164H201.709z"/>
		<path fill="#FFFFFF" d="M224.519,25.533c-1.424-0.562-3.067-0.915-4.812-0.915c-3.442,0-5.652,2.179-5.652,5.732
			c0,3.359,1.777,5.461,5.17,5.461c0.645,0,1.235-0.083,1.716-0.242v-5.947h4.2v8.799c-1.774,0.725-4.039,1.181-6.379,1.181
			c-5.891,0-9.222-3.414-9.222-8.929c0-5.787,3.951-9.794,10.407-9.794c1.834,0,3.688,0.325,5.22,0.781L224.519,25.533z"/>
		<path fill="#FFFFFF" d="M200.847,60.795c-0.454,0-0.827,0.371-0.827,0.826s0.373,0.828,0.827,0.828
			c0.453,0,0.817-0.373,0.817-0.828S201.3,60.795,200.847,60.795 M198.738,62.329v-3.521c0-0.876-0.362-1.604-1.493-1.604
			c-0.818,0-1.402,0.414-1.705,1.009l-0.01-0.009c0.051-0.263,0.07-0.656,0.07-0.889h-1.22v5.015h1.29v-2.422
			c0-0.877,0.516-1.624,1.172-1.624c0.473,0,0.615,0.314,0.615,0.839v3.208H198.738z M193.441,57.203
			c-0.867-0.07-1.352,0.484-1.594,1.121h-0.02c0.061-0.354,0.092-0.757,0.092-1.01h-1.223v5.015h1.293v-2.049
			c0-1.391,0.464-1.997,1.392-1.805L193.441,57.203z M188.237,59.15h-1.846c0.068-0.606,0.443-1,0.978-1
			C187.912,58.151,188.256,58.526,188.237,59.15 M189.518,59.442c0-1.24-0.645-2.239-2.108-2.239c-1.502,0-2.352,1.131-2.352,2.664
			c0,1.764,0.889,2.561,2.483,2.561c0.624,0,1.262-0.109,1.796-0.322l-0.122-0.998c-0.434,0.201-0.968,0.312-1.462,0.312
			c-0.929,0-1.393-0.455-1.384-1.392h3.108C189.509,59.816,189.518,59.614,189.518,59.442 M185.027,54.963
			c-0.261-0.061-0.543-0.08-0.816-0.08c-1.371,0-1.996,0.666-1.996,2.025v0.405h-0.878v0.998h0.878v4.017h1.281v-4.017h1.169v-0.998
			h-1.169v-0.423c0-0.665,0.251-0.958,0.818-0.958c0.19,0,0.423,0.019,0.624,0.089L185.027,54.963z M179.441,59.694
			c0,1.242-0.534,1.707-1.262,1.707c-0.263,0-0.475-0.031-0.675-0.092v-1.393c0-0.856,0.402-1.643,1.077-1.643
			C179.17,58.273,179.441,58.757,179.441,59.694 M180.791,59.554c0-1.482-0.646-2.34-1.835-2.34c-0.758,0-1.292,0.353-1.573,0.937
			h-0.021c0.042-0.262,0.052-0.595,0.052-0.837h-1.201v7.444h1.293v-2.4c0.209,0.031,0.402,0.041,0.644,0.041
			C179.884,62.399,180.791,61.297,180.791,59.554 M173.741,59.797c0,1.018-0.484,1.531-1.12,1.531c-0.746,0-1.12-0.523-1.12-1.553
			c0-1.028,0.565-1.473,1.141-1.473C173.397,58.303,173.741,58.827,173.741,59.797 M175.073,59.725c0-1.724-0.919-2.511-2.341-2.511
			c-1.523,0-2.563,1.129-2.563,2.692c0,1.786,0.919,2.522,2.341,2.522C174.013,62.428,175.073,61.297,175.073,59.725 M169.33,60.774
			c0-1.624-2.055-1.261-2.055-2.078c0-0.314,0.24-0.516,0.745-0.516c0.313,0,0.645,0.052,0.929,0.131l0.041-1.019
			c-0.304-0.05-0.627-0.09-0.919-0.09c-1.411,0-2.128,0.728-2.128,1.604c0,1.703,2.026,1.201,2.026,2.088
			c0,0.332-0.323,0.533-0.816,0.533c-0.384,0-0.769-0.068-1.079-0.148l-0.029,1.059c0.321,0.051,0.684,0.09,1.048,0.09
			C168.465,62.428,169.33,61.764,169.33,60.774 M165.074,62.297v-1.039c-0.181,0.051-0.413,0.082-0.626,0.082
			c-0.443,0-0.594-0.184-0.594-0.83v-2.198h1.22v-0.998h-1.22v-1.887l-1.291,0.344v1.543h-0.857v0.998h0.857v2.544
			c0,1.17,0.354,1.572,1.462,1.572C164.38,62.428,164.753,62.377,165.074,62.297 M158.66,55.791c0-0.394-0.313-0.696-0.698-0.696
			c-0.382,0-0.694,0.303-0.694,0.696c0,0.383,0.312,0.697,0.694,0.697C158.347,56.488,158.66,56.174,158.66,55.791 M160.697,55.791
			c0-0.394-0.312-0.696-0.697-0.696c-0.382,0-0.696,0.303-0.696,0.696c0,0.383,0.314,0.697,0.696,0.697
			C160.385,56.488,160.697,56.174,160.697,55.791 M159.638,60.229c0,0.605-0.434,1.21-1.069,1.21c-0.373,0-0.595-0.213-0.595-0.535
			c0-0.402,0.303-0.796,1.664-0.796V60.229z M160.959,62.329c-0.021-0.416-0.031-0.889-0.031-1.293v-2.086
			c0-1.09-0.452-1.746-2.067-1.746c-0.646,0-1.292,0.131-1.796,0.312l0.11,1.081c0.424-0.242,1.029-0.394,1.485-0.394
			c0.725,0,0.978,0.271,0.978,0.796v0.273c-1.705,0-2.896,0.634-2.896,1.835c0,0.805,0.525,1.32,1.433,1.32
			c0.748,0,1.363-0.393,1.604-0.957l0.01,0.01c-0.039,0.262-0.05,0.555-0.05,0.848H160.959z M155.905,62.297v-1.039
			c-0.181,0.051-0.414,0.082-0.625,0.082c-0.444,0-0.596-0.184-0.596-0.83v-2.198h1.221v-0.998h-1.221v-1.887l-1.29,0.344v1.543
			h-0.859v0.998h0.859v2.544c0,1.17,0.353,1.572,1.461,1.572C155.209,62.428,155.584,62.377,155.905,62.297 M151.68,57.314h-1.29
			v5.015h1.29V57.314z M151.84,55.882c0-0.434-0.363-0.778-0.807-0.778c-0.444,0-0.797,0.354-0.797,0.778
			c0,0.433,0.353,0.787,0.797,0.787C151.477,56.669,151.84,56.314,151.84,55.882 M148.895,54.963h-1.291v7.365h1.291V54.963z
			 M144.798,60.229c0,0.605-0.433,1.21-1.068,1.21c-0.373,0-0.597-0.213-0.597-0.535c0-0.402,0.304-0.796,1.665-0.796V60.229z
			 M146.119,62.329c-0.019-0.416-0.029-0.889-0.029-1.293v-2.086c0-1.09-0.455-1.746-2.068-1.746c-0.646,0-1.291,0.131-1.796,0.312
			l0.111,1.081c0.425-0.242,1.029-0.394,1.483-0.394c0.725,0,0.978,0.271,0.978,0.796v0.273c-1.704,0-2.896,0.634-2.896,1.835
			c0,0.805,0.525,1.32,1.434,1.32c0.747,0,1.362-0.393,1.603-0.957l0.011,0.01c-0.04,0.262-0.05,0.555-0.05,0.848H146.119z
			 M140.713,62.329v-3.521c0-0.876-0.362-1.604-1.492-1.604c-0.816,0-1.403,0.414-1.707,1.009l-0.009-0.009
			c0.052-0.263,0.07-0.656,0.07-0.889h-1.22v5.015h1.29v-2.422c0-0.877,0.515-1.624,1.171-1.624c0.475,0,0.615,0.314,0.615,0.839
			v3.208H140.713z M134.862,57.314h-1.29v5.015h1.29V57.314z M135.023,55.882c0-0.434-0.364-0.778-0.808-0.778
			s-0.797,0.354-0.797,0.778c0,0.433,0.354,0.787,0.797,0.787S135.023,56.314,135.023,55.882 M132.079,62.329v-3.45
			c0-1.14-0.537-1.676-1.504-1.676c-0.849,0-1.402,0.514-1.636,1.009c-0.121-0.484-0.493-1.009-1.38-1.009
			c-0.747,0-1.353,0.394-1.655,1.009h-0.022c0.053-0.292,0.072-0.666,0.072-0.898h-1.222v5.015h1.293v-2.4
			c0-0.938,0.555-1.646,1.149-1.646c0.494,0,0.596,0.375,0.596,0.868v3.178h1.271v-2.4c0-0.979,0.586-1.646,1.151-1.646
			c0.472,0,0.594,0.334,0.594,0.868v3.178H132.079z M123.241,57.314h-1.292v5.015h1.292V57.314z M123.402,55.882
			c0-0.434-0.363-0.778-0.807-0.778s-0.796,0.354-0.796,0.778c0,0.433,0.353,0.787,0.796,0.787S123.402,56.314,123.402,55.882
			 M121.012,57.203c-0.868-0.07-1.352,0.484-1.595,1.121h-0.019c0.059-0.354,0.089-0.757,0.089-1.01h-1.22v5.015h1.29v-2.049
			c0-1.391,0.466-1.997,1.393-1.805L121.012,57.203z M117.38,62.329l-2.602-3.521l2.492-3.289h-1.595l-2.208,3.087v-3.087h-1.312
			v6.811h1.312V59.06l2.187,3.269H117.38z M108.341,62.329v-3.521c0-0.876-0.363-1.604-1.492-1.604
			c-0.817,0-1.402,0.414-1.705,1.009l-0.012-0.009c0.051-0.263,0.071-0.656,0.071-0.889h-1.22v5.015h1.292v-2.422
			c0-0.877,0.513-1.624,1.169-1.624c0.475,0,0.615,0.314,0.615,0.839v3.208H108.341z M101.521,59.15h-1.845
			c0.07-0.606,0.443-1,0.979-1C101.198,58.151,101.542,58.526,101.521,59.15 M102.802,59.442c0-1.24-0.646-2.239-2.108-2.239
			c-1.503,0-2.35,1.131-2.35,2.664c0,1.764,0.887,2.561,2.481,2.561c0.625,0,1.26-0.109,1.796-0.322l-0.122-0.998
			c-0.434,0.201-0.969,0.312-1.463,0.312c-0.928,0-1.392-0.455-1.382-1.392h3.107C102.792,59.816,102.802,59.614,102.802,59.442
			 M98.313,54.963c-0.262-0.061-0.544-0.08-0.817-0.08c-1.372,0-1.998,0.666-1.998,2.025v0.405h-0.878v0.998h0.878v4.017h1.281
			v-4.017h1.17v-0.998h-1.17v-0.423c0-0.665,0.252-0.958,0.817-0.958c0.192,0,0.424,0.019,0.625,0.089L98.313,54.963z
			 M93.745,54.963h-1.291v7.365h1.291V54.963z M89.991,59.15h-1.845c0.07-0.606,0.443-1,0.979-1
			C89.667,58.151,90.012,58.526,89.991,59.15 M91.271,59.442c0-1.24-0.644-2.239-2.107-2.239c-1.503,0-2.351,1.131-2.351,2.664
			c0,1.764,0.887,2.561,2.481,2.561c0.625,0,1.261-0.109,1.796-0.322l-0.122-0.998c-0.433,0.201-0.967,0.312-1.463,0.312
			c-0.927,0-1.391-0.455-1.381-1.392h3.107C91.262,59.816,91.271,59.614,91.271,59.442 M85.663,62.329v-3.521
			c0-0.876-0.363-1.604-1.492-1.604c-0.777,0-1.353,0.373-1.646,0.938l-0.02-0.009c0.07-0.293,0.092-0.717,0.092-1.02v-2.149h-1.292
			v7.365h1.292v-2.422c0-0.877,0.513-1.624,1.169-1.624c0.475,0,0.616,0.314,0.616,0.839v3.208H85.663z M78.067,57.203
			c-0.867-0.07-1.351,0.484-1.593,1.121h-0.02c0.06-0.354,0.09-0.757,0.09-1.01h-1.22v5.015h1.291v-2.049
			c0-1.391,0.463-1.997,1.392-1.805L78.067,57.203z M73.831,57.314H72.54v5.015h1.291V57.314z M73.992,55.882
			c0-0.434-0.363-0.778-0.808-0.778c-0.443,0-0.796,0.354-0.796,0.778c0,0.433,0.353,0.787,0.796,0.787
			C73.629,56.669,73.992,56.314,73.992,55.882 M71.592,55.518H70.28l-0.927,3.804c-0.101,0.403-0.183,0.826-0.253,1.301H69.09
			c-0.061-0.475-0.173-0.948-0.274-1.323l-1.049-3.782h-1.392l-1.039,3.804c-0.122,0.433-0.192,0.887-0.263,1.342h-0.009
			c-0.061-0.474-0.142-0.939-0.253-1.383l-0.928-3.764h-1.402l1.735,6.811h1.523l0.99-3.784c0.119-0.453,0.201-0.898,0.25-1.371
			h0.012c0.07,0.484,0.141,0.968,0.262,1.401l0.988,3.754h1.614L71.592,55.518z"/>
	</g>
</g>
</svg>
